<?xml version="1.0" standalone="no"?>
<!DOCTYPE svg PUBLIC "-//W3C//DTD SVG 20010904//EN"
 "http://www.w3.org/TR/2001/REC-SVG-20010904/DTD/svg10.dtd">
<svg version="1.0" xmlns="http://www.w3.org/2000/svg"
 width="1068.000000pt" height="1068.000000pt" viewBox="0 0 1068.000000 1068.000000"
 preserveAspectRatio="xMidYMid meet">
<metadata>
Created by potrace 1.14, written by Peter Selinger 2001-2017
</metadata>
<g transform="translate(0.000000,1068.000000) scale(0.100000,-0.100000)"
fill="#000000" stroke="none">
<path d="M0 6425 c0 -3399 3 -4254 12 -4251 7 3 32 7 55 10 l42 6 16 -57 c9
-31 36 -96 61 -144 26 -53 40 -90 34 -94 -6 -4 -36 -57 -66 -118 -70 -140 -97
-177 -130 -177 -17 0 -24 -5 -24 -20 0 -15 7 -20 29 -20 43 0 87 57 151 192
30 65 57 118 60 118 3 -1 20 -26 38 -57 l33 -57 -20 -26 c-26 -36 -75 -136
-91 -185 -7 -22 -17 -45 -22 -52 -11 -13 -70 -36 -135 -53 l-43 -11 0 -89 0
-89 33 5 c17 3 48 10 67 15 50 13 50 13 50 -34 0 -92 63 -258 132 -348 l35
-45 -39 -43 c-53 -60 -81 -161 -33 -121 8 7 30 44 48 82 l33 68 32 -33 32 -33
-34 -75 c-29 -63 -64 -163 -95 -269 -11 -36 -64 -40 -98 -8 -36 34 -92 112
-129 182 l-34 61 0 -167 0 -167 37 -35 c33 -31 36 -38 26 -55 -29 -46 -63
-148 -63 -188 l0 -43 83 0 82 0 18 59 c18 56 75 129 83 106 2 -5 27 -45 55
-87 l51 -78 120 0 120 0 -45 53 c-25 28 -68 85 -96 126 -53 77 -61 114 -42
181 l7 25 22 -35 c12 -19 22 -39 22 -43 0 -12 41 -69 46 -64 2 2 -12 41 -31
88 -19 46 -35 95 -35 109 0 29 41 138 73 195 13 23 37 47 57 56 l35 17 18 -45
c27 -68 71 -129 160 -220 l80 -82 -36 -73 c-20 -40 -46 -113 -57 -163 -12 -50
-23 -98 -26 -107 -5 -16 5 -18 111 -18 117 0 117 0 110 23 -22 66 -17 101 24
182 22 44 57 98 78 119 l38 40 8 -45 c21 -119 59 -221 109 -292 l19 -27 230 0
229 0 0 38 1 37 20 -37 c14 -28 26 -38 44 -38 31 0 31 6 1 50 -43 65 -49 101
-27 161 39 101 125 199 175 199 13 0 34 -17 53 -43 61 -80 160 -177 222 -217
l64 -41 -25 -27 c-24 -25 -48 -64 -48 -76 0 -3 96 -6 214 -6 l214 0 -29 53
c-36 65 -36 82 -1 133 l27 42 0 -57 c0 -76 45 -171 81 -171 29 0 30 6 4 45
-31 45 -51 95 -60 149 -7 44 -5 55 16 86 43 64 202 190 241 190 13 0 23 -15
37 -52 28 -79 87 -178 182 -305 l85 -113 214 0 c205 0 214 1 228 21 l15 21 7
-21 c3 -12 13 -21 21 -21 18 0 18 9 -3 32 -16 18 -14 21 25 61 35 36 200 136
206 125 0 -2 9 -25 18 -53 10 -27 31 -76 48 -107 l32 -58 109 0 110 0 -39 58
c-68 100 -118 216 -105 247 4 13 12 6 34 -26 41 -63 139 -159 161 -159 17 0
14 7 -20 48 -22 26 -49 56 -61 66 -12 11 -35 43 -52 72 l-29 52 56 86 c32 47
61 86 66 86 4 0 8 6 8 14 0 15 50 56 67 56 5 0 21 -26 37 -57 38 -79 104 -169
160 -221 l46 -43 -52 -52 c-47 -46 -90 -72 -151 -91 -9 -3 -17 -10 -17 -16 0
-21 33 -22 81 -3 l48 21 -35 -69 -35 -70 103 3 103 3 38 70 c21 39 46 78 56
88 16 17 19 15 57 -40 21 -32 52 -72 68 -90 l28 -33 217 0 217 0 17 30 c23 38
31 38 54 0 l18 -30 219 2 220 3 66 87 c76 101 76 101 137 -18 l38 -74 103 0
102 0 -32 63 c-18 34 -34 65 -36 69 -2 4 19 -3 46 -14 47 -20 82 -20 82 0 0 5
-25 19 -55 31 -33 14 -76 44 -110 77 l-55 54 46 42 c56 52 122 143 160 220 16
32 33 58 39 58 21 0 71 -56 133 -148 l63 -93 -30 -53 c-17 -29 -40 -61 -52
-72 -12 -10 -39 -40 -61 -66 -34 -41 -37 -48 -20 -48 21 0 117 93 157 153 29
41 49 41 39 -1 -9 -39 -68 -160 -103 -212 -17 -25 -31 -48 -31 -52 0 -5 47 -8
104 -8 l104 0 31 55 c17 30 39 80 49 110 20 63 14 63 121 2 44 -25 97 -67 132
-104 l58 -63 208 0 208 0 50 61 c102 123 176 244 229 371 9 24 22 38 33 38 37
0 185 -119 241 -193 15 -21 19 -37 15 -65 -8 -60 -24 -104 -54 -155 -34 -56
-35 -57 -9 -57 36 0 82 93 92 190 3 24 4 24 26 -11 29 -47 28 -63 -7 -126
l-29 -53 214 0 c118 0 214 4 214 8 0 12 -32 56 -52 70 -10 7 -18 17 -18 22 0
5 26 26 58 46 63 41 188 163 228 224 33 49 66 53 111 13 44 -40 98 -124 118
-183 16 -49 16 -50 -10 -107 -14 -32 -33 -65 -42 -75 -15 -17 -14 -18 15 -18
26 0 35 6 51 37 l20 38 1 -37 0 -38 229 0 228 0 26 37 c43 62 78 149 94 233 9
44 19 80 23 80 18 0 83 -84 117 -151 28 -56 35 -118 19 -172 l-8 -27 117 0
c106 0 116 2 111 18 -3 9 -14 57 -26 107 -11 50 -37 123 -57 163 l-35 72 76
78 c84 85 146 172 166 232 l13 39 38 -20 c41 -20 76 -78 114 -186 21 -60 16
-98 -29 -196 -36 -80 -14 -72 28 11 l34 67 11 -28 c27 -70 2 -132 -112 -275
-32 -39 -57 -73 -57 -76 0 -4 51 -6 114 -6 l113 0 54 83 c29 45 54 84 56 86
13 19 93 -110 93 -151 0 -16 11 -18 85 -18 l85 0 0 43 c0 42 -28 128 -58 180
-16 27 -16 28 21 62 l37 34 0 168 0 168 -34 -63 c-42 -77 -110 -166 -145 -191
-34 -23 -72 -14 -82 19 -35 120 -66 206 -96 268 l-36 73 33 34 32 33 35 -66
c38 -74 51 -92 64 -92 26 0 -21 108 -64 148 l-25 24 35 46 c72 93 133 255 133
350 0 37 3 43 18 38 9 -3 35 -8 57 -11 22 -4 48 -9 58 -12 16 -4 18 3 15 87
l-3 92 -66 17 c-88 22 -113 40 -128 92 -15 51 -64 151 -92 189 l-20 26 33 57
c18 31 36 56 39 57 3 0 28 -50 55 -111 58 -130 111 -199 155 -199 23 0 29 4
29 21 0 16 -5 20 -20 16 -29 -7 -63 38 -127 168 -30 60 -60 116 -68 124 -12
12 -7 27 31 103 25 49 51 112 58 141 l14 52 56 -3 56 -4 0 4251 0 4251 -5340
0 -5340 0 0 -4255z m6548 3910 c-3 -3 -9 2 -12 12 -6 14 -5 15 5 6 7 -7 10
-15 7 -18z m-2717 -102 c13 -16 12 -17 -3 -4 -10 7 -18 15 -18 17 0 8 8 3 21
-13z m1657 -159 c40 -5 45 -9 63 -50 30 -66 15 -122 -86 -329 -83 -167 -106
-205 -125 -205 -17 0 -50 44 -45 59 3 9 3 13 0 9 -10 -10 -163 301 -175 355
-11 53 2 128 26 148 29 24 202 30 342 13z m-548 -60 c0 -8 -6 -11 -15 -8 -8 4
-15 9 -15 13 0 4 7 8 15 8 8 0 15 -6 15 -13z m827 0 c-3 -3 -12 -4 -19 -1 -8
3 -5 6 6 6 11 1 17 -2 13 -5z m-1127 -64 c23 -18 24 -18 5 -46 -77 -117 -181
-329 -200 -406 -11 -45 -37 -34 -72 30 -17 31 -55 95 -82 142 -48 79 -82 155
-96 213 -6 21 -1 27 37 45 61 29 278 55 278 33 0 -10 -40 -112 -56 -142 -9
-19 -27 -32 -54 -40 -38 -12 -42 -11 -70 16 -36 34 -52 26 -23 -13 41 -55 147
-31 177 40 8 18 22 52 31 75 34 81 68 96 125 53z m1517 -39 c13 -31 31 -71 38
-89 32 -72 137 -95 178 -40 29 39 13 47 -23 13 -28 -26 -32 -28 -67 -17 -43
13 -55 29 -89 118 -23 62 -23 63 -4 69 34 11 172 -6 235 -29 58 -21 60 -23 57
-55 -1 -19 -16 -63 -33 -98 -41 -87 -156 -280 -181 -305 l-21 -21 -22 69 c-32
98 -44 123 -130 274 l-77 134 26 21 c19 15 36 20 58 17 26 -4 34 -13 55 -61z
m-1244 -98 c49 -31 82 -78 151 -217 l58 -115 -36 -31 c-45 -40 -143 -196 -171
-272 l-22 -60 -36 48 c-42 58 -112 126 -184 179 -50 37 -53 42 -53 83 0 51 39
140 125 287 84 142 91 146 168 98z m982 -32 c25 -39 73 -123 105 -187 48 -94
60 -126 60 -164 0 -46 -1 -48 -65 -95 -70 -51 -170 -154 -188 -192 -5 -12 -13
-23 -17 -23 -3 0 -14 24 -23 53 -16 51 -138 255 -161 269 -53 32 -54 25 14
161 71 144 113 199 173 227 23 10 45 19 49 20 3 0 27 -31 53 -69z m-1875 -62
c43 -18 54 -30 85 -86 35 -64 36 -67 21 -103 -8 -20 -20 -65 -26 -100 -6 -34
-22 -79 -34 -99 -44 -70 -48 -81 -31 -81 8 0 26 17 40 38 14 20 32 47 40 58 9
12 20 50 26 84 16 101 20 102 73 15 44 -73 46 -78 31 -99 -67 -91 -113 -171
-130 -224 l-19 -63 -40 6 c-23 4 -52 12 -66 19 -41 18 -199 246 -171 246 5 0
13 -8 16 -17 10 -28 72 -74 109 -83 48 -11 65 4 24 20 -18 8 -57 36 -87 62
-39 35 -57 46 -66 38 -14 -11 -17 -5 -76 139 -40 96 -47 127 -29 116 13 -8 42
14 34 26 -3 5 1 7 8 4 7 -3 51 20 98 50 47 30 93 55 103 55 10 0 40 -9 67 -21z
m2797 -25 c37 -25 89 -57 116 -70 26 -13 47 -26 47 -28 0 -12 -77 -200 -102
-250 -34 -68 -137 -223 -165 -248 -16 -15 -87 -37 -120 -38 -6 0 -19 26 -28
58 -15 52 -76 159 -126 223 l-21 27 50 82 c55 90 53 90 72 -21 9 -52 21 -79
52 -120 22 -30 47 -56 56 -58 14 -3 14 -1 1 20 -47 75 -58 100 -69 159 -6 36
-18 80 -26 99 -14 33 -13 38 18 99 29 56 40 68 83 88 28 13 60 24 72 24 12 0
52 -21 90 -46z m-3876 -81 c13 -16 12 -17 -3 -4 -10 7 -18 15 -18 17 0 8 8 3
21 -13z m594 -167 c20 -11 47 -51 96 -146 l68 -131 -39 -82 c-44 -91 -78 -135
-118 -154 -27 -13 -26 -13 8 -7 19 3 49 15 66 25 33 20 78 94 89 146 3 18 10
35 14 37 4 3 35 -31 69 -74 l61 -79 -57 -45 c-59 -46 -128 -115 -153 -153 -15
-21 -15 -21 -55 -4 -53 24 -104 70 -161 144 l-46 60 46 -27 c26 -15 52 -26 58
-24 6 2 -16 17 -49 33 -58 29 -61 32 -110 131 -49 98 -85 205 -76 227 2 7 21
21 42 33 20 11 36 25 35 32 -2 6 3 9 10 7 6 -2 37 11 67 30 61 37 94 42 135
21z m3756 -28 c39 -24 78 -47 87 -53 65 -38 65 -37 47 -106 -16 -61 -105 -253
-127 -274 -8 -7 -9 -6 -4 2 3 6 -20 -3 -51 -20 -31 -17 -52 -32 -45 -35 7 -2
30 6 52 17 l40 21 -30 -43 c-40 -55 -121 -137 -136 -137 -6 0 -24 -7 -40 -15
-26 -13 -29 -13 -42 8 -8 12 -36 44 -61 70 -38 40 -64 62 -150 123 -2 2 14 25
36 51 22 26 49 63 62 81 25 36 36 35 46 -5 16 -67 48 -122 83 -146 40 -27 109
-47 98 -28 -4 6 -16 11 -26 11 -24 0 -81 78 -120 165 l-30 68 38 66 c21 36 51
94 67 129 48 104 97 116 206 50z m-1933 -113 c20 4 48 13 63 20 24 13 28 12
51 -13 41 -44 103 -143 123 -194 30 -79 18 -200 -30 -318 -21 -52 -39 -96 -40
-98 -1 -1 -21 5 -45 13 -58 20 -238 20 -287 0 -20 -8 -37 -14 -38 -13 -1 2
-20 46 -41 98 -47 117 -58 240 -28 318 20 55 93 171 124 200 l22 20 45 -20
c32 -14 55 -18 81 -13z m-827 -97 c126 -65 233 -190 246 -287 5 -37 4 -41 -16
-41 -12 0 -44 -9 -71 -21 -56 -24 -125 -100 -162 -179 -13 -27 -28 -49 -35
-50 -13 0 -120 160 -177 265 -25 47 -38 83 -38 111 -2 80 98 244 148 244 12 0
60 -19 105 -42z m1775 7 c44 -47 95 -152 96 -201 2 -26 -8 -59 -28 -99 -37
-73 -174 -285 -184 -285 -4 0 -24 29 -45 65 -67 114 -122 159 -232 191 -47 13
53 200 142 269 43 32 173 95 199 95 10 0 34 -16 52 -35z m-3198 -88 c9 -23 31
-71 48 -106 l32 -63 -26 -77 c-24 -72 -105 -200 -126 -201 -24 -1 -93 42 -109
67 -27 45 -66 88 -72 81 -8 -8 21 -77 43 -102 20 -22 109 -66 136 -66 20 0
135 117 136 138 0 7 5 10 12 6 6 -4 8 -3 5 3 -4 6 0 31 9 57 l16 46 55 -78
c30 -42 65 -88 77 -101 l21 -23 -45 -40 c-25 -22 -67 -57 -95 -77 -51 -39
-118 -108 -145 -150 l-16 -24 -46 20 c-51 23 -78 55 -136 163 -57 107 -121
320 -96 320 5 0 18 16 28 35 11 19 23 35 28 35 4 0 8 4 8 9 0 13 100 110 143
139 20 13 37 29 37 34 0 5 5 6 10 3 6 -3 10 -1 10 5 0 25 43 -14 58 -53z
m4539 46 c12 -10 42 -36 69 -58 26 -22 63 -58 83 -79 92 -99 104 -121 96 -164
-23 -123 -112 -324 -176 -397 -15 -17 -45 -37 -66 -43 -36 -11 -39 -10 -57 16
-30 42 -113 120 -203 192 l-81 64 58 71 c32 39 66 85 78 103 l20 33 20 -60
c24 -70 123 -191 157 -191 32 0 120 45 142 73 26 34 48 86 39 95 -4 4 -17 -7
-29 -23 -46 -64 -90 -104 -124 -116 -30 -9 -37 -9 -44 3 -5 8 -26 37 -48 63
-45 54 -98 200 -80 221 6 7 28 52 49 100 22 49 47 94 56 101 22 16 17 16 41
-4z m-3548 -327 c58 -36 101 -93 101 -135 0 -32 -24 -73 -81 -138 -27 -31 -46
-59 -40 -61 12 -4 96 72 132 121 l28 39 36 -56 c39 -61 39 -65 24 -119 -8 -30
-19 -42 -57 -61 -60 -31 -138 -89 -213 -160 -32 -31 -60 -56 -63 -56 -2 0 -7
12 -10 26 -12 46 -126 306 -151 343 -35 50 -32 74 18 128 53 58 182 155 216
162 2 1 29 -14 60 -33z m2635 -21 c77 -54 166 -147 166 -174 0 -11 -13 -42
-28 -68 -34 -58 -141 -307 -149 -346 l-6 -28 -71 68 c-78 76 -149 130 -212
161 -29 15 -45 31 -53 53 -17 50 -14 65 29 132 22 34 40 54 40 44 0 -10 34
-52 75 -95 82 -85 107 -79 30 8 -79 88 -89 124 -55 189 23 45 123 114 153 105
11 -3 47 -25 81 -49z m-4061 -203 l37 -89 -35 -79 c-49 -109 -58 -124 -104
-174 -35 -38 -42 -42 -71 -36 -36 7 -147 77 -165 104 -25 37 -24 64 5 123 20
39 44 68 72 87 24 17 63 48 88 71 25 22 57 46 73 52 15 6 27 15 27 20 0 5 8 9
18 9 12 0 28 -25 55 -88z m2206 72 c22 -16 101 -129 101 -145 0 -4 -9 -10 -19
-14 -11 -3 -37 -18 -58 -32 -31 -21 -48 -26 -98 -24 -60 1 -105 -13 -112 -36
-3 -8 21 -10 94 -6 86 5 103 9 140 34 23 16 44 29 47 29 3 0 6 -48 6 -107 l0
-108 -39 -32 c-38 -31 -41 -32 -105 -26 l-67 6 -43 66 c-24 36 -53 75 -64 85
-48 42 -10 183 78 289 31 38 99 48 139 21z m1025 6 c54 -20 136 -176 136 -258
0 -14 -17 -48 -39 -76 -21 -28 -50 -69 -64 -92 -25 -40 -27 -41 -91 -47 -62
-6 -66 -5 -96 23 -18 17 -36 30 -41 30 -5 0 -9 50 -9 110 0 61 3 110 6 110 3
0 24 -13 47 -29 37 -25 54 -29 140 -34 73 -4 97 -2 94 6 -7 23 -52 37 -112 36
-51 -1 -68 4 -117 32 -32 19 -57 36 -58 40 -1 13 82 129 102 143 25 18 65 20
102 6z m2195 -12 c21 -13 61 -42 87 -66 27 -23 51 -41 54 -40 12 4 79 -72 103
-119 27 -50 27 -53 12 -90 -12 -30 -32 -50 -80 -82 -36 -23 -80 -45 -98 -47
-29 -5 -36 -1 -78 48 -27 31 -63 92 -87 148 l-42 95 29 70 c16 38 32 78 35 88
7 22 17 22 65 -5z m-4495 -123 c13 -14 34 -45 47 -69 23 -44 23 -45 4 -66 -10
-11 -46 -34 -79 -50 -34 -16 -79 -45 -101 -64 -38 -34 -39 -35 -15 -36 14 0
34 6 45 14 11 7 59 34 107 59 l88 45 40 -85 c22 -47 40 -87 40 -89 0 -2 -27
-4 -60 -4 -63 0 -233 -23 -307 -41 l-43 -11 -73 68 c-39 37 -73 73 -75 79 -7
27 110 138 255 243 55 39 95 42 127 7z m3589 1 c53 -36 166 -128 210 -172 70
-67 69 -72 -14 -153 -66 -64 -77 -71 -104 -65 -127 25 -194 34 -282 40 -57 4
-103 8 -103 9 0 10 89 187 90 178 0 -6 36 -30 81 -52 45 -23 91 -48 102 -56
12 -8 33 -15 47 -15 24 1 23 2 -15 35 -22 20 -65 47 -95 61 -62 29 -100 61
-100 81 0 8 18 40 39 71 33 50 44 58 73 60 23 2 47 -6 71 -22z m-1729 -45 c16
-15 23 -28 17 -34 -11 -11 -270 -12 -282 0 -11 11 1 27 36 47 23 12 51 16 117
14 76 -3 90 -6 112 -27z m-2697 -83 c16 -29 35 -63 43 -75 13 -20 9 -26 -63
-103 -49 -52 -89 -106 -109 -148 -27 -54 -37 -67 -53 -64 -28 5 -80 57 -128
127 -22 33 -45 63 -51 67 -24 17 6 6 50 -17 58 -31 83 -26 146 29 38 33 55 60
89 139 22 53 43 97 44 97 2 0 16 -24 32 -52z m5222 -47 c32 -74 51 -104 88
-137 27 -24 57 -44 68 -45 38 -4 70 3 86 17 8 8 21 14 28 14 16 0 -58 -105
-107 -152 -62 -60 -72 -58 -109 20 -21 44 -58 96 -111 152 -74 80 -79 87 -65
105 8 11 28 44 45 73 17 29 32 52 33 50 2 -2 22 -45 44 -97z m-2665 53 c76 -1
151 2 167 6 l29 9 0 -55 c0 -30 0 -56 0 -59 0 -3 -81 -6 -180 -7 -99 -1 -180
2 -180 6 0 110 1 117 12 110 7 -5 75 -9 152 -10z m-830 -143 c6 -10 -27 -25
-94 -41 -84 -22 -151 -64 -82 -53 48 8 167 45 180 55 15 13 71 -38 56 -51 -5
-5 -54 -16 -109 -25 -55 -10 -144 -28 -197 -42 -53 -13 -102 -24 -108 -24 -13
0 88 95 137 129 73 49 200 80 217 52z m1812 -6 c27 -8 68 -27 90 -42 55 -37
156 -124 150 -130 -2 -3 -51 7 -108 21 -57 14 -147 33 -200 42 -122 21 -126
24 -95 58 24 26 27 27 54 13 26 -14 102 -37 166 -51 15 -4 27 -2 27 3 0 10
-80 45 -125 55 -49 11 -85 28 -79 37 8 14 65 11 120 -6z m-4088 -100 c46 -60
52 -74 52 -116 0 -38 -7 -56 -35 -95 -54 -76 -79 -114 -114 -175 -27 -48 -29
-58 -16 -63 11 -4 24 8 43 40 35 59 80 124 116 170 17 20 32 53 35 74 l6 39
58 -69 c31 -38 57 -71 57 -74 0 -2 -30 -33 -66 -68 -83 -79 -159 -179 -181
-238 -9 -25 -20 -49 -24 -53 -9 -11 -118 97 -143 141 l-18 34 26 -17 c25 -17
56 -15 56 3 0 11 -80 43 -90 37 -4 -3 -15 11 -25 30 -15 33 -15 39 0 93 48
166 166 390 199 379 6 -2 35 -34 64 -72z m6347 39 c41 -53 111 -200 146 -305
28 -84 30 -95 17 -127 -9 -25 -20 -36 -38 -38 -37 -4 -80 -22 -80 -34 0 -18
31 -24 52 -11 11 7 21 11 23 9 6 -7 -77 -108 -114 -137 -37 -30 -42 -31 -47
-14 -32 96 -68 148 -167 247 l-104 103 41 44 c23 25 51 58 63 74 l22 30 0 -37
c1 -29 12 -50 52 -100 28 -35 66 -91 85 -125 33 -59 58 -81 69 -64 6 10 -75
149 -120 206 -46 58 -55 78 -55 128 0 30 7 54 22 73 55 73 90 114 97 114 5 0
21 -16 36 -36z m-5485 -44 c38 -30 69 -57 70 -60 0 -8 -126 -159 -178 -212
l-46 -48 34 10 c36 10 163 134 201 194 l18 30 40 -43 c49 -52 68 -107 55 -158
-7 -29 -17 -39 -49 -52 -53 -21 -145 -74 -223 -128 -35 -23 -66 -43 -71 -43
-4 0 -15 24 -24 53 -11 32 -38 76 -72 117 -30 36 -58 71 -61 78 -11 23 27 116
69 167 69 83 141 154 155 152 7 -1 44 -27 82 -57z m4667 3 c100 -97 163 -192
163 -248 0 -8 -27 -47 -60 -86 -37 -44 -65 -90 -76 -122 -9 -29 -18 -54 -20
-56 -1 -1 -42 23 -91 55 -48 32 -122 75 -163 96 -41 21 -81 43 -87 48 -18 15
-16 75 2 114 23 48 85 114 92 97 6 -16 131 -159 159 -182 26 -21 74 -41 74
-30 0 5 -8 15 -17 22 -31 26 -194 221 -191 230 4 10 140 119 149 119 4 0 34
-26 66 -57z m-2159 -58 c23 -9 42 -21 42 -26 0 -4 -29 -43 -65 -86 -36 -43
-65 -83 -65 -90 0 -7 -3 -13 -7 -14 -63 -7 -133 -34 -133 -51 0 -15 -21 -8
-54 17 -18 14 -42 25 -54 25 -36 0 -70 18 -78 42 -3 13 -33 51 -66 86 -32 35
-56 68 -52 73 8 13 50 30 99 40 22 4 119 6 215 5 140 -2 184 -7 218 -21z
m-703 -126 c25 -23 42 -45 39 -50 -3 -5 -44 -21 -92 -35 -48 -15 -125 -42
-172 -61 -47 -19 -132 -47 -189 -64 -107 -30 -119 -35 -109 -45 8 -7 273 64
313 84 61 30 205 58 165 32 -25 -17 -228 -78 -335 -101 -55 -12 -106 -26 -113
-32 -7 -5 -15 -7 -18 -4 -4 3 -36 -5 -73 -19 -183 -70 -308 -103 -413 -111
-43 -3 -78 -3 -78 -1 0 3 33 13 73 23 146 34 351 86 356 90 17 17 -25 13 -146
-13 -76 -17 -186 -34 -245 -38 l-108 -7 0 33 c0 47 35 101 88 138 64 43 407
137 677 186 174 31 185 33 268 35 66 1 68 0 112 -40z m1285 7 c135 -24 532
-122 623 -154 87 -30 157 -109 157 -176 0 -24 -3 -26 -42 -26 -89 1 -237 21
-333 45 -106 27 -145 31 -129 16 10 -11 206 -64 332 -91 45 -9 86 -21 90 -25
9 -10 -136 2 -196 16 -54 13 -205 61 -242 77 -29 12 -158 47 -345 93 -136 33
-272 87 -225 88 28 1 89 -17 167 -48 54 -21 225 -69 278 -78 58 -10 4 23 -66
40 -37 9 -116 35 -175 58 -60 22 -143 51 -184 64 -41 12 -88 28 -105 35 l-30
12 50 45 50 46 95 -6 c52 -4 156 -17 230 -31z m-2388 -6 c-35 -16 -89 -54
-121 -85 l-57 -55 -71 18 -71 17 -4 49 c-2 31 1 50 9 53 34 13 190 31 278 32
l100 1 -63 -30z m3332 15 c55 -8 102 -19 106 -24 3 -5 4 -30 2 -55 -3 -36 -8
-46 -21 -46 -10 0 -43 -9 -74 -19 -32 -11 -57 -16 -57 -11 0 31 -123 127 -197
155 -37 13 -36 14 52 14 50 1 135 -6 189 -14z m-4455 -245 c28 -22 51 -44 51
-49 0 -5 -39 -48 -86 -96 -56 -57 -77 -84 -62 -79 28 9 71 41 122 94 21 21 43
37 48 33 11 -6 47 -82 48 -99 0 -6 -24 -25 -52 -44 -164 -102 -196 -131 -230
-208 -17 -39 -23 -43 -50 -40 -25 2 -39 16 -85 82 l-54 78 21 70 c20 66 27 76
133 184 62 63 120 114 129 114 9 0 39 -18 67 -40z m5557 -74 c107 -108 114
-117 134 -184 l21 -70 -58 -81 c-71 -100 -91 -104 -131 -26 -11 22 -28 49 -39
61 -26 30 -108 91 -147 109 -18 9 -47 28 -65 43 l-33 28 22 52 c12 29 25 52
28 52 6 0 30 -21 81 -71 30 -31 89 -69 105 -69 2 0 -34 39 -80 88 -46 48 -84
90 -84 94 0 11 102 88 118 88 8 0 66 -51 128 -114z m-2866 24 c0 -5 -4 -10
-10 -10 -5 0 -10 5 -10 10 0 6 5 10 10 10 6 0 10 -4 10 -10z m-3519 -82 c32
-55 42 -81 40 -107 -6 -69 -41 -156 -89 -221 -27 -36 -59 -95 -72 -133 -13
-37 -31 -74 -40 -82 -16 -14 -19 -10 -45 46 -30 67 -29 98 2 209 32 113 140
360 157 360 2 0 23 -33 47 -72z m1619 66 c0 -3 -14 -17 -30 -31 -17 -13 -28
-29 -24 -34 3 -5 -1 -9 -9 -9 -45 0 -185 -57 -254 -103 -43 -28 -85 -55 -95
-59 -9 -4 -55 -32 -102 -62 -47 -31 -103 -64 -123 -74 -88 -44 -103 -54 -103
-64 0 -6 -3 -8 -7 -5 -3 4 -15 -1 -26 -10 -19 -17 -20 -17 -9 2 16 31 37 47
172 133 69 43 163 106 210 140 117 84 226 147 285 165 50 16 115 22 115 11z
m3911 -17 c67 -23 195 -99 297 -175 31 -24 115 -80 186 -124 136 -84 169 -111
180 -142 5 -16 3 -15 -17 4 -33 32 -147 91 -161 83 -6 -3 -8 -3 -4 2 4 4 -23
27 -60 50 -37 23 -102 64 -145 91 -43 27 -101 63 -128 79 -27 17 -86 41 -131
55 -68 20 -89 31 -117 62 l-33 38 33 0 c19 0 64 -11 100 -23z m1592 -82 c52
-103 112 -276 122 -352 6 -44 3 -61 -21 -112 -14 -34 -30 -61 -34 -61 -9 0
-31 44 -59 120 -11 30 -38 78 -59 106 -51 67 -70 110 -87 191 l-14 67 33 51
c18 27 39 61 46 74 15 29 19 25 73 -84z m-5433 85 c-20 -13 -33 -13 -25 0 3 6
14 10 23 10 15 0 15 -2 2 -10z m3670 0 c8 -5 11 -10 5 -10 -5 0 -17 5 -25 10
-8 5 -10 10 -5 10 6 0 17 -5 25 -10z m-5202 -258 c-6 -14 -177 -349 -203 -399
-15 -29 -34 -53 -42 -53 -8 0 -25 11 -38 24 l-24 25 24 44 c14 24 34 69 44 99
10 30 36 77 57 104 49 64 86 147 92 204 l4 46 45 -44 c24 -24 43 -47 41 -50z
m3563 83 c221 -23 369 -45 404 -60 32 -13 85 -71 85 -93 0 -6 -12 -12 -27 -14
-17 -2 -29 -10 -31 -20 -3 -15 4 -18 33 -18 79 0 -4 -42 -137 -70 -346 -72
-986 -55 -1190 32 -57 24 -61 38 -12 38 28 0 35 3 32 17 -2 11 -16 20 -33 23
-32 7 -34 19 -8 58 32 51 101 68 408 101 215 24 298 25 476 6z m3261 -136 c14
-30 44 -79 67 -109 23 -30 46 -73 52 -95 6 -22 24 -64 39 -93 l29 -54 -24 -24
c-45 -45 -37 -55 -193 251 -48 94 -87 174 -87 179 0 5 18 28 40 51 l40 41 6
-47 c4 -26 18 -71 31 -100z m-5365 43 c9 -5 -1 -27 -33 -72 -25 -36 -61 -94
-81 -130 -51 -92 -90 -140 -219 -265 -149 -146 -162 -157 -220 -190 -27 -16
-68 -42 -91 -57 l-43 -29 -39 21 c-88 44 -110 92 -71 155 22 35 140 144 235
217 33 25 83 67 110 94 121 115 251 225 289 244 42 20 139 28 163 12z m3939
-7 c52 -22 124 -76 117 -89 -3 -6 -3 -8 2 -4 4 4 62 -43 129 -105 66 -62 141
-128 166 -147 61 -46 188 -158 222 -195 58 -64 42 -118 -50 -168 l-50 -27 -58
39 c-33 21 -79 51 -103 65 -23 15 -82 65 -130 111 -47 46 -100 96 -117 112
-51 45 -116 132 -168 223 -27 47 -65 107 -84 133 -28 40 -32 51 -21 58 22 14
106 11 145 -6z m-3846 -47 c23 -16 27 -25 19 -35 -6 -7 -8 -13 -5 -13 12 0
-17 -24 -69 -58 -72 -47 -85 -55 -112 -76 -25 -19 -25 -19 -15 0 6 11 30 46
54 79 24 33 53 75 63 93 23 38 27 39 65 10z m3698 -50 c26 -39 57 -87 70 -105
l23 -34 -23 12 c-13 7 -36 23 -51 35 -16 13 -35 24 -43 24 -8 0 -14 4 -14 8 0
4 -13 16 -30 25 -16 10 -35 28 -41 39 -10 19 -8 25 17 45 16 13 32 23 37 23 4
0 28 -32 55 -72z m-5044 -25 c32 -36 37 -46 25 -53 -64 -37 -177 -165 -218
-247 -33 -66 -8 -51 42 25 25 37 78 103 119 146 l74 80 21 -24 22 -23 -62 -71
c-34 -39 -91 -102 -126 -141 -35 -38 -75 -94 -89 -122 -15 -29 -29 -53 -32
-53 -3 1 -20 13 -38 29 l-33 28 86 164 c47 90 102 197 122 237 21 39 40 72 43
71 3 0 23 -21 44 -46z m6366 5 c0 -5 50 -104 112 -220 l111 -211 -29 -24 c-16
-12 -34 -23 -40 -23 -6 0 -20 19 -30 42 -10 24 -44 70 -75 103 -30 33 -77 87
-104 120 -26 33 -60 72 -75 86 l-28 27 35 38 c19 22 46 54 60 72 24 31 27 32
44 16 11 -10 19 -21 19 -26z m-4235 -19 c25 -6 56 -23 70 -36 32 -32 27 -42
-75 -140 -74 -72 -91 -93 -72 -93 4 0 48 34 99 75 51 41 95 75 98 75 12 0 3
-21 -20 -46 -13 -14 -38 -51 -55 -80 -42 -76 -92 -119 -307 -267 -165 -114
-405 -232 -510 -251 -92 -16 31 71 192 136 148 59 389 228 327 228 -5 0 -29
-14 -53 -32 -82 -60 -223 -138 -304 -169 -44 -17 -114 -46 -156 -66 l-76 -35
-42 44 c-48 50 -48 73 -1 148 42 65 92 110 205 181 55 35 156 103 225 152 244
173 331 207 455 176z m2211 -10 c75 -28 100 -43 289 -174 88 -61 196 -133 240
-160 95 -60 165 -128 194 -190 30 -64 27 -85 -18 -129 l-39 -38 -64 30 c-35
17 -101 45 -148 63 -96 36 -215 101 -307 166 -61 43 -94 54 -70 23 41 -53 217
-166 319 -204 95 -36 242 -122 233 -136 -6 -10 -79 5 -145 30 -72 29 -271 128
-291 146 -8 8 -20 14 -25 14 -6 0 -19 8 -30 18 -10 9 -32 26 -49 36 -62 39
-219 160 -256 197 -21 21 -50 61 -64 90 -18 35 -31 49 -41 45 -10 -4 -12 -2
-8 6 4 6 0 17 -10 23 -9 7 -14 19 -11 28 5 12 11 10 33 -10 59 -56 163 -135
169 -130 3 4 -33 47 -81 97 -47 50 -86 96 -86 102 0 17 52 57 85 67 52 16 122
12 181 -10z m-4030 -174 c4 -8 -12 -44 -35 -81 -23 -36 -41 -67 -41 -69 0 -2
-10 -25 -22 -52 -12 -26 -21 -50 -20 -53 0 -3 -24 -22 -54 -42 -30 -21 -54
-34 -54 -30 0 4 27 38 60 76 33 38 60 73 60 78 0 27 -40 -14 -195 -201 -27
-33 -58 -62 -69 -65 -46 -12 19 135 96 214 29 31 71 78 93 105 56 70 65 79
109 109 44 30 64 33 72 11z m5731 -1 c18 -9 64 -51 100 -93 36 -42 90 -102
119 -134 59 -63 78 -96 100 -166 7 -25 14 -47 14 -48 0 0 -9 1 -21 4 -11 3
-64 58 -118 122 -105 123 -138 157 -146 149 -6 -5 89 -126 110 -140 24 -17 -6
-17 -33 0 -38 22 -62 53 -87 110 -13 31 -21 39 -27 30 -6 -8 -7 -5 -3 10 5 18
-3 38 -34 83 -23 33 -38 65 -35 74 8 19 18 19 61 -1z m-1962 -14 c-3 -5 -12
-10 -18 -10 -7 0 -6 4 3 10 19 12 23 12 15 0z m-3011 -81 c-3 -5 -10 -7 -15
-3 -5 3 -7 10 -3 15 3 5 10 7 15 3 5 -3 7 -10 3 -15z m5922 -41 c5 -7 3 -8 -6
-3 -10 6 -12 1 -7 -25 6 -26 4 -31 -8 -26 -23 9 -19 -60 6 -101 14 -23 23 -57
26 -101 l5 -67 -41 79 c-22 43 -49 88 -61 100 -25 28 -25 29 8 63 15 16 35 43
44 61 19 35 23 38 34 20z m-7623 -70 l38 -47 -36 -49 c-19 -27 -46 -74 -60
-103 l-26 -54 5 66 c3 40 14 83 26 107 13 25 20 53 18 74 -4 32 -4 33 -14 9
-11 -24 -11 -24 -16 -3 -4 12 -2 20 3 16 5 -3 9 7 9 22 0 16 4 24 8 19 4 -6
25 -31 45 -57z m1624 47 c0 -8 -4 -12 -9 -9 -5 3 -6 10 -3 15 9 13 12 11 12
-6z m2478 -69 c108 -12 255 -66 255 -93 0 -8 38 -52 84 -96 88 -85 156 -179
226 -311 42 -81 110 -177 110 -157 0 15 -83 172 -119 226 -15 22 -45 72 -66
110 -21 39 -58 98 -82 133 -25 34 -42 62 -38 62 30 0 243 -143 320 -215 33
-31 112 -90 175 -132 63 -42 139 -97 168 -122 110 -94 280 -323 347 -468 56
-118 132 -325 163 -437 26 -97 27 -111 27 -341 0 -226 -2 -247 -28 -355 -70
-295 -144 -451 -326 -681 -47 -60 -99 -127 -116 -149 -53 -73 -298 -306 -370
-352 -107 -69 -363 -205 -426 -227 l-56 -19 43 67 c24 36 62 89 85 116 40 48
129 199 129 220 0 15 -89 -76 -113 -115 -77 -126 -231 -300 -282 -320 -75 -29
-539 -39 -751 -16 -117 12 -123 14 -167 50 -51 42 -110 115 -211 261 -19 28
-58 75 -85 105 -44 48 -50 51 -40 25 20 -58 93 -180 125 -211 17 -17 41 -49
52 -71 12 -22 33 -55 48 -72 14 -18 25 -34 23 -36 -14 -13 -302 132 -469 237
-145 91 -393 356 -590 632 -107 149 -190 356 -242 601 -20 95 -23 138 -23 320
0 188 3 219 24 300 44 169 107 340 178 480 109 216 304 450 451 541 110 68
177 119 252 188 36 34 92 77 125 97 33 19 84 50 113 69 56 35 78 34 46 -3 -45
-50 -302 -493 -292 -502 7 -8 78 94 114 162 58 112 145 235 224 315 41 43 85
88 96 102 29 32 161 73 279 85 84 9 521 6 610 -3z m1805 -136 c6 -11 7 -20 2
-20 -6 0 -12 9 -15 20 -3 11 -3 20 -1 20 2 0 8 -9 14 -20z m-4240 -5 c0 -8 -7
-15 -15 -15 -13 0 -14 3 -3 15 16 18 18 18 18 0z m-1429 -15 c36 -19 38 -23
28 -43 -7 -12 -51 -67 -99 -122 -142 -164 -183 -225 -151 -225 5 0 47 44 93
98 47 53 100 113 118 132 18 19 43 49 55 67 l22 32 43 -44 c24 -25 42 -46 39
-48 -2 -2 -25 -16 -51 -30 -66 -38 -188 -137 -270 -218 -64 -64 -70 -68 -93
-57 -31 14 -30 17 37 150 55 113 108 226 108 234 0 12 62 94 71 94 5 0 28 -9
50 -20z m7162 -13 c14 -18 37 -62 52 -98 15 -35 53 -117 85 -181 75 -151 76
-152 48 -165 -21 -9 -33 -1 -125 87 -55 53 -142 123 -192 156 -50 32 -91 64
-91 69 0 6 18 28 39 49 34 34 40 36 45 20 3 -11 29 -44 57 -74 28 -30 87 -97
131 -147 44 -51 84 -93 89 -93 27 0 -15 71 -96 162 -87 98 -143 165 -154 185
-10 20 -8 24 26 42 51 27 57 26 86 -12z m-5670 -182 c33 -31 34 -53 7 -188
-15 -75 -36 -134 -77 -220 -83 -175 -50 -173 40 3 37 73 65 161 93 299 l5 25
24 -30 c13 -16 24 -38 25 -48 0 -28 -31 -149 -41 -160 -5 -6 -9 -16 -9 -24 0
-8 -6 -28 -14 -45 -7 -18 -24 -59 -36 -92 -33 -86 -104 -227 -164 -325 -29
-47 -58 -99 -65 -117 l-13 -32 -43 21 -44 21 24 41 c13 23 33 66 46 96 13 30
41 83 62 117 21 34 37 70 35 80 -3 13 -15 1 -42 -42 -103 -161 -169 -257 -181
-261 -7 -3 -39 5 -71 18 -73 28 -75 37 -39 179 47 188 121 352 233 520 81 121
113 153 167 173 52 19 46 20 78 -9z m4208 -6 c65 -33 214 -259 293 -448 48
-114 96 -285 96 -344 0 -40 -7 -47 -73 -71 l-49 -18 -28 27 c-15 15 -51 66
-80 113 -68 116 -123 189 -127 175 -3 -7 18 -51 45 -97 28 -47 53 -95 57 -108
4 -13 20 -47 36 -75 16 -29 29 -55 29 -57 0 -4 -77 -46 -84 -46 -2 0 -6 14
-10 30 -3 17 -10 36 -16 43 -89 106 -275 505 -305 657 -4 19 -11 40 -16 46 -6
7 3 29 23 60 l33 48 8 -54 c18 -128 106 -349 158 -396 31 -28 24 2 -26 106
-56 114 -84 210 -92 316 -6 79 -5 81 22 102 30 24 43 23 106 -9z m-4946 -36
c-3 -21 -55 -137 -115 -258 -127 -257 -165 -350 -175 -425 -4 -30 -17 -79 -30
-107 -22 -49 -27 -53 -57 -53 -19 0 -43 7 -56 15 -32 23 -56 114 -50 194 6 74
24 112 119 252 32 48 94 154 137 235 86 165 106 184 191 184 l43 0 -7 -37z
m72 15 c-3 -13 -13 -54 -22 -93 -9 -38 -31 -117 -47 -175 -45 -152 -57 -209
-58 -260 0 -24 -20 -108 -45 -186 l-45 -141 -67 -6 c-37 -4 -68 -5 -70 -3 -2
1 3 18 11 37 8 19 20 82 26 139 10 87 20 122 56 203 24 53 44 101 44 106 0 4
19 37 41 72 23 35 47 79 54 99 7 19 27 61 44 93 17 32 36 76 42 98 13 42 46
58 36 17z m5467 -12 c4 -19 22 -65 40 -103 19 -37 42 -86 51 -108 9 -22 25
-49 36 -61 11 -11 35 -57 54 -102 18 -44 45 -105 59 -135 18 -38 31 -90 41
-170 7 -64 21 -130 30 -147 l16 -31 -73 7 c-40 3 -73 7 -73 8 0 0 -20 60 -43
131 -23 72 -44 155 -47 185 -10 88 -25 160 -51 238 -13 40 -31 110 -40 155 -8
45 -22 99 -30 120 -18 47 -18 47 5 47 13 0 21 -10 25 -34z m164 7 c16 -11 57
-77 97 -155 39 -74 101 -180 137 -234 126 -188 145 -248 113 -363 -20 -71 -50
-101 -100 -101 -29 0 -35 5 -53 44 -12 24 -28 79 -36 122 -18 102 -44 164
-172 420 -63 126 -108 229 -111 254 l-6 43 52 -5 c30 -3 64 -14 79 -25z
m-6351 -205 c0 -18 -2 -27 -5 -20 -2 8 -15 -12 -28 -45 -14 -33 -20 -59 -14
-61 6 -2 10 -8 10 -13 0 -6 -4 -8 -9 -5 -5 4 -13 -8 -16 -26 -16 -73 -28 -84
-105 -97 -40 -6 -88 -18 -107 -26 -20 -8 -39 -15 -44 -15 -11 0 84 124 143
188 48 52 160 152 169 152 3 0 6 -15 6 -32z m6932 -12 c56 -42 269 -281 259
-292 -2 -1 -41 8 -87 22 -46 13 -94 24 -107 24 -25 0 -48 28 -59 72 -4 16 -10
26 -14 23 -4 -2 -5 9 -3 26 2 16 0 35 -6 42 -5 6 -13 27 -17 45 -3 18 -10 30
-13 28 -4 -2 -8 7 -8 20 -1 13 0 24 3 24 3 0 26 -15 52 -34z m-8534 -135 c3
-5 2 -12 -3 -15 -5 -3 -9 1 -9 9 0 17 3 19 12 6z m1001 -121 c0 -12 -4 -16 -9
-11 -5 5 -6 14 -3 20 10 15 12 14 12 -9z m457 -250 c38 -96 49 -176 46 -342
l-3 -149 -24 6 c-13 3 -37 8 -51 11 l-27 6 -1 106 c0 59 -5 120 -11 135 -7 16
-15 66 -18 112 -6 67 -3 94 10 129 13 35 38 59 52 52 1 -1 13 -30 27 -66z
m7207 60 c42 -22 53 -161 24 -287 -10 -45 -15 -97 -12 -154 l4 -86 -49 -13
c-26 -7 -50 -10 -52 -8 -12 12 -16 241 -6 313 11 76 57 245 68 245 2 0 13 -4
23 -10z m-7325 -147 c0 -71 6 -159 13 -198 8 -45 10 -89 5 -125 l-8 -55 -55
-6 c-31 -3 -66 -12 -79 -19 -21 -11 -26 -10 -43 11 -64 82 -100 181 -80 221
22 43 42 110 42 143 0 40 13 52 120 109 47 25 85 46 85 46 0 0 0 -57 0 -127z
m7500 72 c72 -41 91 -60 93 -97 1 -15 13 -60 27 -100 14 -39 25 -83 25 -97 0
-33 -33 -105 -64 -142 -13 -15 -26 -33 -28 -39 -2 -7 -17 -6 -47 5 -24 8 -60
15 -81 15 -35 0 -38 2 -44 38 -10 64 -7 148 10 213 16 63 16 205 0 242 -7 15
-5 16 19 7 15 -6 56 -26 90 -45z m-6352 -265 l66 -20 7 -70 c4 -39 10 -73 15
-75 13 -9 21 33 13 80 -3 25 -3 45 0 45 13 0 95 -42 105 -54 7 -8 -6 -30 -45
-74 -31 -34 -60 -62 -65 -62 -6 0 -21 -13 -34 -28 -29 -35 -126 -88 -179 -97
-34 -7 -38 -6 -33 11 10 31 44 214 52 274 6 43 22 90 31 90 1 0 31 -9 67 -20z
m5186 -17 c5 -21 15 -72 21 -113 6 -41 17 -103 25 -138 20 -85 19 -92 -8 -92
-35 0 -137 54 -179 96 -21 20 -38 34 -38 31 0 -3 -12 7 -27 22 -48 48 -93 101
-93 110 0 5 24 21 53 35 l52 27 3 -53 c5 -103 30 -96 31 8 1 30 7 56 14 63 11
9 104 38 129 40 4 1 12 -16 17 -36z m-5642 -29 c16 -5 21 -12 18 -32 -2 -15
-6 -61 -9 -102 -8 -92 -46 -270 -58 -270 -4 0 -8 5 -8 10 0 6 -4 10 -10 10 -6
0 -10 -26 -10 -59 0 -38 -6 -71 -17 -90 -18 -32 -58 -51 -73 -35 -11 13 -68
296 -76 381 -5 57 -3 82 11 118 19 51 42 65 104 65 l39 0 4 -134 c3 -127 9
-158 25 -143 3 4 8 64 10 134 6 164 4 159 50 147z m6057 -71 c3 -42 6 -100 6
-129 0 -56 7 -84 21 -84 5 0 9 63 9 140 l0 140 43 0 c65 0 84 -9 101 -45 30
-62 21 -164 -40 -453 -15 -70 -17 -73 -42 -70 -37 4 -62 56 -62 130 0 57 -12
83 -24 52 -9 -25 -16 -13 -37 68 -20 77 -44 302 -34 318 3 6 17 10 29 10 21 0
24 -5 30 -77z m-7174 -48 c0 -9 -11 -41 -24 -73 -25 -59 -61 -220 -52 -230 14
-13 35 25 46 83 7 36 25 92 42 127 l29 62 21 -35 c22 -36 48 -93 78 -172 l18
-47 -63 -65 c-35 -35 -66 -73 -70 -85 -3 -11 -10 -20 -14 -20 -10 0 -82 77
-106 114 -10 15 -47 55 -82 88 -34 34 -63 65 -63 70 0 23 153 158 179 158 6 0
11 5 11 10 0 6 7 10 15 10 8 0 15 5 15 10 0 6 5 10 10 10 6 0 10 -7 10 -15z
m8318 -32 c59 -39 162 -135 162 -151 0 -5 -28 -36 -63 -69 -35 -33 -76 -78
-91 -99 -36 -48 -88 -104 -97 -104 -4 0 -12 13 -19 29 -6 16 -38 54 -70 84
l-58 56 24 67 c24 66 83 174 94 174 13 0 60 -118 71 -177 10 -57 31 -94 45
-81 9 10 -27 171 -52 230 -39 93 -32 98 54 41z m-439 -182 c0 -3 -35 -76 -77
-161 -63 -127 -81 -156 -102 -160 -22 -5 -27 -1 -42 39 -13 32 -18 75 -18 142
0 92 1 96 25 107 29 13 29 15 10 -63 -8 -32 -12 -62 -9 -65 10 -9 34 33 51 90
9 30 20 59 24 64 17 19 140 26 138 7z m-7383 1 c6 -4 21 -36 33 -72 12 -36 25
-72 31 -80 19 -30 23 3 8 65 -16 69 -14 73 17 51 17 -12 21 -27 22 -97 3 -107
-19 -180 -58 -190 -25 -6 -28 -2 -97 142 -97 205 -95 189 -25 189 32 0 63 -4
69 -8z m8119 -112 c-5 -9 70 -132 156 -257 16 -23 29 -44 29 -48 0 -3 12 -22
26 -41 27 -35 27 -64 -1 -64 -8 0 -38 -12 -65 -26 -44 -23 -53 -25 -85 -14
-39 13 -51 9 -42 -14 7 -18 82 -40 110 -32 38 9 -45 -64 -85 -76 -34 -10 -42
-9 -85 18 -27 17 -70 58 -98 96 -27 36 -70 91 -93 122 l-44 55 35 33 c19 18
57 60 83 93 60 76 185 198 159 155z m-8910 -65 c17 -16 61 -67 98 -112 38 -46
76 -87 84 -92 13 -7 0 -29 -72 -125 -132 -177 -181 -208 -257 -163 -24 14 -52
34 -62 46 -19 21 -19 21 11 15 40 -8 103 19 103 45 0 19 -2 19 -39 4 -39 -15
-42 -15 -92 11 -28 15 -54 25 -57 22 -10 -11 -31 16 -25 32 10 27 202 328 218
342 8 7 15 19 15 28 0 17 18 4 75 -53z m502 -127 c-2 -7 2 -31 10 -52 15 -44
11 -59 -7 -25 -17 31 -29 76 -22 83 10 11 24 6 19 -6z m7845 -14 c-5 -31 -24
-74 -33 -74 -4 0 -2 20 5 44 8 25 11 48 7 52 -3 4 1 5 9 2 8 -3 14 -14 12 -24z
m-7923 -246 c40 -39 89 -91 108 -115 33 -40 35 -47 31 -93 -3 -32 -21 -83 -47
-134 -46 -94 -47 -96 -27 -96 36 0 106 133 106 203 l0 31 16 -22 c9 -13 17
-29 18 -35 2 -7 8 -32 15 -56 12 -42 11 -44 -26 -100 -21 -32 -47 -83 -58
-114 l-19 -57 -62 0 c-34 0 -69 -2 -77 -5 -9 -4 -32 20 -67 71 -29 42 -49 75
-44 72 80 -38 105 -47 118 -42 20 7 21 24 2 24 -15 0 -156 91 -173 112 -28 34
-84 158 -79 175 3 10 17 30 31 45 14 15 25 30 25 32 0 6 130 176 134 176 1 0
35 -32 75 -72z m8151 -50 c51 -67 94 -127 97 -134 2 -7 -14 -50 -37 -96 -39
-78 -46 -86 -117 -132 -42 -27 -84 -51 -94 -53 -11 -3 -19 -9 -19 -14 0 -16
60 -9 101 12 l40 20 -51 -76 c-36 -54 -56 -75 -67 -71 -8 3 -44 6 -79 6 -45 0
-64 4 -64 13 0 16 -64 151 -89 186 -17 24 -26 95 -11 86 3 -2 12 16 19 41 16
54 31 66 31 25 0 -68 70 -201 106 -201 8 0 14 2 14 4 0 2 -19 43 -42 91 -51
107 -60 171 -29 212 28 36 184 200 193 202 3 0 48 -54 98 -121z m-8950 -94 c0
-2 -11 -30 -24 -62 -13 -31 -32 -86 -41 -122 -9 -36 -28 -91 -41 -124 -26 -60
-26 -73 0 -63 21 8 54 76 72 150 18 74 56 177 65 177 4 0 23 -15 44 -33 l37
-33 -30 -48 c-24 -38 -92 -227 -137 -384 -3 -12 -23 -34 -43 -49 -20 -15 -45
-35 -55 -45 -26 -26 -33 -23 -66 26 l-31 44 17 48 c8 27 25 59 36 72 18 19 18
22 4 22 -9 0 -17 5 -17 10 0 6 4 10 9 10 5 0 11 14 15 32 3 18 39 114 79 214
63 159 74 180 90 172 9 -5 17 -11 17 -14z m9623 9 c11 -40 106 -281 134 -342
21 -47 27 -91 12 -91 -8 0 -4 -9 8 -22 56 -61 61 -107 19 -170 l-32 -47 -62
50 c-46 37 -64 59 -71 87 -32 117 -107 324 -133 366 l-30 49 41 39 40 39 17
-38 c9 -21 27 -78 41 -128 26 -98 65 -175 88 -175 19 0 19 -1 -10 72 -13 35
-33 95 -45 133 -11 39 -30 92 -41 118 -16 38 -18 52 -8 63 15 19 26 18 32 -3z
m-9215 -225 c59 -112 108 -196 164 -281 l51 -77 -31 -68 c-17 -37 -44 -101
-60 -142 -69 -175 -100 -211 -190 -226 -36 -6 -42 -3 -73 31 -19 21 -56 61
-82 89 -77 82 -101 130 -94 187 9 77 106 378 142 444 38 68 57 88 100 103 17
6 31 11 32 11 1 1 19 -32 41 -71z m8919 -11 c30 -46 55 -108 97 -242 31 -99
59 -203 62 -231 8 -61 -10 -93 -125 -227 l-76 -88 -43 5 c-24 3 -62 19 -86 36
-40 27 -48 40 -91 147 -25 65 -60 148 -77 185 l-31 67 60 93 c70 110 131 213
166 285 l26 51 39 -10 c32 -8 46 -20 79 -71z m-8193 -336 c14 -57 24 -106 22
-109 -6 -6 -65 87 -72 114 -5 20 13 110 21 102 2 -2 15 -50 29 -107z m7361 43
c5 -32 0 -49 -25 -91 -17 -29 -34 -53 -38 -53 -9 0 -10 40 -1 55 3 6 14 43 25
83 19 76 29 77 39 6z m-7590 -112 c6 -4 62 -88 123 -187 62 -99 123 -193 135
-209 l22 -28 -65 -60 c-36 -34 -89 -72 -117 -85 -29 -14 -53 -29 -53 -34 0
-18 68 -9 101 14 19 13 40 27 48 31 8 5 -4 -23 -25 -62 l-39 -72 -81 0 c-67 0
-89 4 -133 27 -55 27 -146 111 -187 173 l-24 36 22 69 22 69 9 -34 c21 -82
163 -240 216 -240 8 0 -10 24 -40 53 -33 31 -75 87 -105 139 -27 48 -54 88
-60 90 -13 4 73 223 110 278 24 36 30 40 69 40 23 0 47 -4 52 -8z m7889 -30
c14 -21 47 -92 74 -157 47 -118 47 -120 29 -140 -11 -11 -42 -56 -69 -100 -27
-44 -71 -99 -96 -122 -28 -25 -41 -42 -32 -43 49 -1 185 143 214 228 l13 36
21 -64 c21 -62 21 -64 3 -93 -36 -56 -146 -160 -196 -183 -40 -19 -67 -24
-130 -24 l-80 0 -42 75 -41 75 45 -31 c45 -32 123 -51 123 -31 0 6 -24 21 -52
35 -29 13 -82 51 -117 83 l-64 60 36 49 c33 47 185 292 213 344 18 33 32 41
80 41 37 0 44 -4 68 -38z m-9084 -150 c0 -4 -9 -18 -19 -31 -14 -18 -20 -21
-26 -11 -5 8 -4 11 3 6 6 -3 13 6 17 24 4 17 11 28 16 24 5 -3 9 -8 9 -12z
m10183 1 c-4 -10 -2 -14 4 -10 7 5 9 0 6 -13 -6 -21 -6 -21 -21 1 -12 18 -13
23 -1 30 19 12 19 11 12 -8z m-9931 -81 c31 -54 223 -272 241 -272 7 0 -1 -13
-18 -28 -50 -46 -155 -213 -155 -247 0 -37 31 -9 74 68 72 127 91 144 47 41
-22 -50 -50 -121 -63 -157 -19 -55 -35 -79 -85 -129 l-62 -61 -28 33 c-52 61
-184 301 -183 333 0 7 6 3 12 -8 25 -43 130 -175 160 -200 33 -28 68 -28 97 0
20 19 8 29 -18 15 -14 -7 -27 -7 -39 -1 -21 11 -83 84 -146 174 -26 37 -55 67
-63 67 -30 0 -8 83 58 217 67 136 106 196 120 187 5 -3 9 0 9 5 0 23 16 9 42
-37z m9727 19 c35 -37 160 -286 168 -334 5 -31 2 -41 -14 -52 -10 -7 -32 -33
-49 -57 -16 -24 -31 -45 -34 -48 -3 -3 -18 -23 -34 -45 -40 -56 -98 -107 -113
-100 -7 3 -20 8 -28 11 -18 7 -20 -10 -2 -23 6 -6 24 -13 39 -17 37 -8 86 36
164 148 32 47 60 82 62 77 9 -26 -183 -361 -207 -361 -4 0 -34 27 -67 59 -51
51 -64 72 -93 153 -19 51 -47 121 -62 156 -15 34 -26 62 -25 62 6 0 75 -109
100 -158 26 -51 56 -69 56 -34 0 25 -102 188 -143 230 l-33 32 93 98 c50 53
111 127 135 164 24 37 47 67 51 67 5 1 21 -12 36 -28z m-6510 -183 c45 -43 96
-80 139 -102 38 -20 58 -12 27 10 -33 24 -155 128 -152 130 5 5 114 -19 137
-31 14 -7 58 -42 98 -78 39 -35 98 -77 129 -92 92 -44 43 -41 -68 5 -148 60
-150 34 -4 -36 l70 -33 -47 -1 c-82 0 -249 75 -361 163 -98 78 -114 113 -46
104 28 -4 53 -16 78 -39z m3173 -1 c-20 -21 -58 -52 -84 -69 -51 -32 -64 -54
-25 -43 31 10 150 92 183 126 21 22 37 29 66 29 21 0 38 -5 38 -11 0 -24 -114
-118 -204 -168 -123 -68 -185 -91 -244 -91 l-47 1 71 34 c67 32 103 60 92 70
-2 2 -48 -13 -101 -35 -53 -22 -102 -40 -107 -40 -17 0 -11 20 8 26 9 3 31 11
47 18 17 7 33 14 37 15 4 1 29 23 55 49 70 70 112 98 166 114 83 24 92 19 49
-25z m-3329 -195 c35 -27 89 -63 120 -81 51 -29 57 -36 57 -65 0 -44 -37 -97
-75 -108 -95 -27 -285 92 -285 179 0 22 2 21 58 -12 31 -19 62 -35 67 -35 6 0
24 -11 40 -25 47 -39 150 -82 160 -66 2 5 -15 17 -38 27 -37 17 -96 52 -181
110 -15 10 -43 28 -62 40 l-34 20 22 22 c21 18 61 40 80 41 4 1 36 -21 71 -47z
m3645 34 c15 -8 35 -23 45 -34 17 -19 16 -20 -38 -53 -31 -19 -71 -44 -88 -56
-18 -12 -63 -39 -100 -60 -43 -23 -62 -39 -52 -41 21 -5 113 34 140 58 11 10
38 27 60 37 22 11 57 30 78 42 20 13 37 18 37 13 0 -46 -68 -130 -132 -163
-107 -55 -192 -43 -222 32 -24 60 -21 73 27 99 59 33 148 94 172 118 24 25 37
26 73 8z m-6161 -38 c17 -18 32 -38 34 -44 4 -12 101 -100 139 -127 l24 -17
-35 -37 c-77 -81 -123 -173 -86 -173 7 0 21 17 32 37 11 20 40 65 65 99 41 55
47 60 68 51 26 -12 28 -20 6 -38 -21 -17 -85 -112 -114 -169 -13 -25 -40 -94
-60 -155 l-36 -110 -60 -32 c-32 -18 -65 -33 -72 -33 -7 0 -57 46 -112 101
-98 99 -100 102 -100 148 1 25 7 59 13 75 l13 30 49 -65 c84 -112 114 -139
155 -139 40 1 70 22 94 68 28 55 17 58 -30 9 -31 -34 -51 -47 -66 -45 -22 3
-31 14 -135 156 l-51 71 35 93 c43 114 78 185 106 217 21 23 76 61 88 61 3 0
19 -15 36 -32z m833 -7 c0 -18 159 -343 173 -352 17 -12 -25 -39 -59 -39 -42
0 -69 28 -120 125 -38 72 -91 156 -106 165 -8 6 57 120 75 132 15 9 37 -10 37
-31z m6967 -9 c53 -79 55 -87 33 -107 -21 -19 -103 -156 -114 -190 -3 -11 -20
-35 -36 -52 -25 -26 -39 -33 -69 -33 -65 0 -68 18 -19 102 40 68 69 127 132
271 14 31 29 57 33 57 5 0 22 -21 40 -48z m840 28 c34 -20 88 -87 105 -130 50
-122 86 -225 79 -230 -4 -3 -37 -48 -74 -101 -37 -53 -73 -102 -81 -108 -22
-19 -56 -4 -98 43 -31 34 -37 38 -38 20 0 -11 16 -39 36 -62 30 -36 41 -42 75
-42 46 0 67 19 150 135 l54 76 12 -33 c6 -18 12 -54 12 -80 1 -47 0 -48 -98
-148 -54 -55 -103 -100 -109 -100 -15 0 -61 20 -104 47 -33 20 -39 31 -68 125
-39 126 -86 220 -146 293 -25 31 -44 58 -42 59 30 25 42 22 73 -18 18 -23 48
-68 68 -99 20 -31 44 -57 52 -57 30 0 -24 98 -94 173 l-35 37 24 16 c14 9 66
58 115 110 50 51 92 93 95 94 3 0 19 -9 37 -20z m-3330 -99 c10 -16 3 -21 -84
-50 -52 -18 -97 -31 -99 -29 -6 7 104 88 120 88 8 0 17 4 21 10 8 12 28 4 42
-19z m-1989 10 c30 -9 127 -80 119 -87 -2 -2 -36 7 -75 21 -39 14 -78 25 -86
25 -19 0 -28 14 -20 34 7 18 17 20 62 7z m6217 -156 c9 -61 24 -179 34 -262
l17 -153 -25 0 -26 -1 29 -25 c21 -19 30 -37 34 -70 3 -30 1 -44 -7 -44 -6 0
-42 18 -79 40 -52 31 -77 55 -111 104 -23 35 -58 79 -76 96 l-34 33 24 31 c43
56 162 274 183 335 7 19 14 32 16 30 3 -2 12 -54 21 -114z m-10376 -108 c40
-70 81 -137 91 -150 18 -22 18 -23 -28 -73 -26 -28 -59 -72 -74 -96 -21 -34
-46 -56 -99 -87 -40 -22 -76 -41 -81 -41 -5 0 -8 19 -7 43 2 32 10 48 33 69
l31 27 -27 1 c-24 0 -26 3 -22 33 2 17 8 70 14 117 22 181 43 326 52 350 9 24
10 24 27 -20 9 -25 50 -103 90 -173z m1620 58 c34 -60 72 -118 84 -127 29 -22
99 -33 135 -20 32 11 45 6 55 -21 9 -25 -57 -127 -84 -127 -24 0 -112 44 -157
78 -39 30 -127 175 -144 235 -10 37 -8 49 12 92 21 47 23 49 30 25 4 -14 35
-74 69 -135z m7105 105 c9 -22 16 -49 16 -59 0 -34 -79 -178 -127 -231 -46
-51 -143 -110 -182 -110 -30 0 -97 108 -83 131 8 13 8 19 -1 23 -7 4 2 3 18 0
17 -4 56 -7 87 -8 50 -1 60 3 87 28 29 28 151 235 151 256 0 24 19 6 34 -30z
m-4515 -6 c46 -13 95 -24 110 -24 14 0 35 -8 46 -16 18 -15 13 -16 -70 -9
-162 12 -235 34 -235 71 0 18 17 16 149 -22z m1974 17 c-3 -11 -22 -26 -43
-35 -41 -16 -178 -36 -245 -36 -40 1 -40 1 -15 15 14 8 36 14 50 15 14 0 70
13 125 30 122 35 135 36 128 11z m-2344 -41 c48 0 48 0 66 -45 19 -51 75 -96
150 -122 37 -12 45 -19 45 -39 0 -13 -4 -24 -8 -24 -22 0 -172 44 -212 62
-128 59 -150 66 -150 49 0 -26 279 -141 343 -141 17 0 18 -2 6 -16 -17 -21
-85 -14 -188 21 -144 49 -220 106 -208 157 9 35 77 110 94 104 8 -3 36 -6 62
-6z m2654 -2 c31 -24 67 -82 67 -109 0 -39 -25 -63 -108 -104 -122 -60 -292
-94 -292 -57 0 4 38 17 85 30 126 33 281 109 262 129 -7 6 -90 -24 -132 -49
-33 -19 -138 -53 -197 -63 -36 -7 -38 -6 -38 19 0 20 6 27 28 32 82 20 155 79
181 146 9 24 16 27 63 31 29 2 56 4 59 5 3 1 13 -4 22 -10z m-5157 -122 c0 0
15 -30 33 -66 45 -93 76 -142 120 -191 l39 -44 -35 -47 c-51 -70 -39 -98 12
-31 22 28 46 52 53 52 20 1 14 -13 -19 -45 -38 -36 -73 -97 -134 -235 -46
-103 -48 -107 -84 -113 -72 -12 -82 -8 -133 47 -115 124 -155 195 -140 250 7
27 8 27 72 -55 36 -46 78 -100 94 -121 15 -21 40 -43 54 -48 46 -18 112 10
112 47 0 16 -36 19 -45 4 -3 -5 -16 -10 -29 -10 -26 0 -144 125 -200 213 l-37
58 22 70 c47 150 163 291 224 273 11 -4 20 -7 21 -8z m7632 0 c66 -35 150
-157 183 -268 l20 -68 -37 -57 c-54 -85 -174 -213 -199 -213 -11 0 -30 7 -42
15 -14 10 -24 12 -28 5 -13 -20 7 -49 41 -60 56 -19 86 0 164 104 37 50 80
105 94 121 l25 30 2 -25 c4 -50 -3 -85 -24 -115 -49 -70 -149 -184 -168 -190
-11 -4 -42 -4 -68 0 l-48 7 -48 106 c-61 139 -90 189 -133 234 -25 26 -33 41
-26 48 8 8 19 -1 38 -29 15 -22 37 -48 48 -58 21 -18 21 -18 14 12 -4 17 -21
44 -38 62 l-31 32 44 49 c42 46 129 192 143 239 4 12 15 24 24 26 9 3 18 5 20
6 2 0 15 -5 30 -13z m-4346 -133 c17 -18 28 -36 24 -40 -4 -4 -75 -8 -157 -8
-82 0 -149 -2 -149 -5 0 -3 27 -14 60 -24 53 -17 73 -18 161 -10 55 5 103 6
105 2 11 -18 -12 -38 -52 -44 -54 -8 -229 3 -265 17 -45 17 -65 93 -33 120 23
19 87 28 186 26 84 -2 89 -3 120 -34z m1290 17 c30 -14 39 -38 29 -77 -13 -50
-44 -62 -181 -69 -139 -7 -180 2 -180 37 0 15 5 19 15 15 8 -3 55 -8 105 -12
70 -5 99 -3 132 9 24 9 52 18 63 20 11 3 -41 6 -115 7 -74 1 -148 5 -163 9
l-29 6 22 28 c13 16 32 33 44 38 28 12 225 4 258 -11z m-603 -31 c16 -10 37
-30 47 -44 15 -23 15 -27 0 -50 -10 -14 -27 -30 -39 -34 -39 -15 -210 -22
-306 -13 -80 8 -98 13 -113 32 -10 12 -18 30 -18 40 0 20 46 69 75 80 10 4 88
7 172 7 130 0 156 -2 182 -18z m4704 -181 c22 -14 57 -54 86 -98 56 -85 59
-65 -30 -216 -54 -90 -79 -114 -121 -114 -30 0 -35 -9 -16 -28 15 -15 53 -15
81 0 26 13 35 25 106 138 l53 85 -5 -44 c-3 -27 -34 -102 -77 -188 l-71 -143
-42 6 c-87 13 -99 24 -136 115 -40 100 -101 208 -147 258 l-33 37 55 54 c71
67 150 163 159 189 6 20 7 20 53 -4 26 -13 64 -35 85 -47z m-9642 40 c16 -32
86 -113 152 -177 l56 -54 -31 -36 c-52 -59 -99 -139 -143 -245 -45 -109 -49
-112 -147 -130 l-37 -7 -70 143 c-39 79 -73 163 -77 188 l-6 45 52 -85 c70
-114 106 -150 145 -150 30 0 55 15 55 32 0 4 -12 8 -26 8 -14 0 -34 5 -45 10
-21 12 -68 82 -122 183 l-35 65 53 79 c47 70 61 84 121 116 81 43 90 44 105
15z m1797 -33 c-3 -3 -9 2 -12 12 -6 14 -5 15 5 6 7 -7 10 -15 7 -18z m-133 3
c5 4 5 1 1 -6 -10 -16 63 -124 77 -115 6 3 7 2 4 -4 -8 -13 46 -96 95 -145 20
-21 34 -38 31 -38 -3 0 4 -8 15 -19 32 -27 27 -34 -10 -15 -41 21 -215 194
-252 250 -26 41 -26 42 -9 72 12 20 21 28 29 21 6 -5 15 -5 19 -1z m6220 -28
c15 -28 14 -30 -45 -103 -68 -84 -177 -190 -219 -212 -25 -12 -31 -12 -40 -1
-9 11 -9 16 0 22 8 4 9 3 5 -4 -13 -22 9 -12 36 16 62 61 228 290 228 313 0
17 19 -1 35 -31z m-6407 -164 c19 -29 75 -96 126 -149 l92 -97 -45 -22 c-71
-36 -108 -96 -218 -358 -22 -52 -56 -100 -72 -100 -29 0 -79 51 -129 132 -99
162 -115 213 -88 287 l12 34 46 -96 c88 -182 149 -250 197 -220 24 15 43 60
39 91 -4 27 -4 27 -21 -11 -24 -52 -45 -58 -77 -19 -24 29 -44 66 -130 243
l-32 66 38 84 c69 152 106 189 184 188 43 0 46 -2 78 -53z m6718 15 c26 -26
54 -73 83 -136 l43 -97 -32 -67 c-94 -193 -112 -227 -132 -248 -30 -32 -45
-29 -68 17 -11 22 -25 40 -30 40 -13 0 -1 -59 17 -88 18 -29 36 -36 69 -28 30
8 103 116 155 231 19 41 37 74 41 75 9 0 28 -59 28 -91 0 -29 -72 -178 -125
-257 -34 -51 -104 -106 -119 -93 -15 13 -55 93 -117 234 -58 132 -96 191 -140
215 -64 35 -65 30 35 136 52 54 107 121 122 147 29 48 30 49 80 49 45 0 54 -4
90 -39z m-7659 -113 c11 -18 52 -72 91 -120 l72 -88 -51 -67 c-53 -72 -83
-122 -76 -129 4 -5 75 70 124 131 23 29 35 37 43 29 8 -8 1 -27 -28 -70 -54
-83 -147 -265 -180 -353 -33 -91 -59 -113 -141 -119 -58 -4 -58 -4 -91 36 -17
22 -31 44 -30 48 1 4 -2 10 -7 13 -4 3 -15 15 -23 25 -14 18 -14 19 8 5 12 -8
22 -17 22 -21 0 -3 15 -16 34 -27 43 -27 90 -27 116 -1 25 25 18 45 -10 30
-10 -5 -29 -10 -42 -10 -36 0 -114 74 -155 148 -36 63 -38 71 -36 150 1 78 4
89 51 185 28 56 65 119 82 140 38 44 99 80 155 88 22 3 43 7 47 7 3 1 15 -13
25 -30z m8585 -11 c59 -39 108 -105 160 -212 36 -76 40 -92 41 -167 1 -73 -2
-90 -27 -137 -15 -30 -52 -79 -82 -109 -48 -47 -59 -54 -87 -50 -18 3 -40 8
-49 13 -24 10 -23 -10 2 -35 32 -32 81 -26 136 16 l47 36 -23 -38 c-60 -101
-109 -120 -197 -76 -29 14 -53 30 -53 36 0 40 -140 328 -209 432 -28 41 -33
64 -12 64 4 0 30 -28 58 -62 74 -91 96 -113 101 -100 3 11 -72 126 -110 169
l-20 21 67 79 c37 43 78 97 91 119 24 41 25 41 72 37 30 -3 64 -16 94 -36z
m-6951 -318 c74 -76 186 -197 211 -227 34 -42 -22 -44 -79 -3 -117 85 -242
254 -243 329 0 23 0 23 24 -5 13 -15 52 -58 87 -94z m5279 105 c0 -4 -16 -41
-36 -82 -27 -55 -58 -98 -121 -163 -46 -48 -99 -94 -118 -103 -35 -17 -75 -21
-75 -8 0 9 47 61 207 230 113 119 143 145 143 126z m-4989 -97 c-10 -9 -11 -8
-5 6 3 10 9 15 12 12 3 -3 0 -11 -7 -18z m-585 -18 c18 -11 43 -40 55 -64 12
-25 46 -76 75 -114 l54 -70 -47 -44 c-65 -62 -51 -81 15 -22 l53 48 39 -38 38
-37 -57 -29 c-79 -40 -144 -105 -186 -189 -30 -61 -42 -74 -78 -90 -39 -18
-43 -18 -70 -2 -35 21 -126 114 -161 166 -21 31 -26 50 -26 100 l0 61 28 -41
c31 -47 144 -156 172 -166 11 -4 22 -2 26 4 4 7 2 14 -5 16 -7 2 -21 14 -30
25 -9 11 -38 44 -64 71 -26 28 -61 75 -77 103 l-30 53 19 47 c43 109 102 222
119 226 45 12 106 6 138 -14z m5882 15 c22 -6 72 -98 120 -219 l20 -50 -27
-52 c-14 -28 -51 -80 -81 -114 -58 -66 -63 -71 -95 -94 -19 -14 -19 -14 11
-15 25 0 44 13 102 73 39 39 80 83 91 97 l20 25 1 -56 c0 -51 -4 -62 -43 -115
-45 -60 -119 -133 -154 -152 -14 -8 -29 -6 -61 8 -35 16 -47 30 -77 90 -44 88
-102 147 -182 187 l-61 31 38 37 39 38 51 -46 c51 -46 89 -56 53 -14 -20 25
-19 24 -57 54 l-28 22 47 58 c26 31 60 82 75 114 43 85 110 116 198 93z
m-6787 -61 c14 -44 97 -195 146 -267 l33 -49 -27 -17 c-61 -37 -137 -140 -104
-140 5 0 39 32 75 71 66 70 67 70 92 55 31 -21 30 -28 -6 -49 -58 -35 -111
-126 -165 -286 l-32 -96 -76 0 -76 0 -44 43 c-24 24 -61 71 -81 105 -31 54
-36 69 -35 122 1 67 15 141 18 95 4 -64 109 -229 160 -249 39 -17 60 -12 83
20 21 28 41 99 27 99 -4 0 -22 -20 -39 -45 -17 -25 -36 -45 -42 -45 -17 0 -70
61 -108 126 -32 53 -35 67 -39 146 -3 87 -2 90 39 171 109 210 174 272 201
190z m7641 2 c19 -20 62 -89 96 -154 60 -115 62 -121 62 -194 0 -86 -7 -110
-57 -187 -45 -69 -73 -100 -89 -100 -7 0 -25 19 -41 42 -41 60 -56 61 -38 3
26 -87 64 -105 124 -61 57 42 139 179 142 236 l1 25 8 -25 c4 -14 8 -54 9 -90
1 -59 -3 -72 -36 -129 -43 -72 -94 -128 -130 -142 -13 -5 -52 -9 -86 -9 l-62
0 -25 83 c-37 127 -102 250 -156 293 -42 35 -44 38 -28 55 10 11 20 19 24 19
4 0 38 -31 76 -70 70 -72 84 -81 84 -54 0 19 -108 134 -127 134 -7 0 -13 2
-13 4 0 2 23 38 51 81 50 75 119 207 133 253 10 32 39 27 78 -13z m-2141 -18
c-10 -9 -11 -8 -5 6 3 10 9 15 12 12 3 -3 0 -11 -7 -18z m-6491 -101 c0 -17
53 -153 83 -211 33 -65 114 -181 143 -204 l27 -21 -20 -23 c-31 -33 -76 -121
-118 -228 -37 -95 -38 -96 -92 -124 l-55 -28 -49 54 c-91 99 -159 239 -158
322 l0 42 21 -54 c58 -151 150 -254 209 -236 28 9 23 18 -21 38 -62 29 -126
133 -175 284 l-26 81 21 63 c41 121 90 193 159 236 42 27 51 28 51 9z m9583
-2 c18 -9 43 -26 55 -38 32 -29 86 -128 112 -204 l21 -64 -26 -81 c-50 -154
-131 -278 -191 -293 -20 -5 -22 -9 -13 -20 42 -51 156 67 217 227 l21 54 0
-43 c1 -73 -51 -188 -125 -278 -36 -43 -72 -82 -79 -87 -9 -4 -34 3 -64 20
-47 26 -52 33 -82 113 -42 111 -82 190 -113 227 l-25 30 42 44 c23 24 61 77
85 116 44 73 122 251 122 278 0 19 4 19 43 -1z m-5605 -19 c-3 -3 -9 2 -12 12
-6 14 -5 15 5 6 7 -7 10 -15 7 -18z m-1390 -233 c34 -35 82 -79 222 -204 91
-81 95 -85 123 -103 15 -9 27 -24 27 -32 0 -26 -45 -93 -62 -93 -52 0 -368
353 -368 412 0 26 9 58 16 58 2 0 21 -17 42 -38z m4420 6 c6 -20 5 -40 -1 -52
-40 -79 -329 -386 -363 -386 -15 0 -29 15 -48 49 l-26 49 59 45 c32 25 68 50
80 56 11 7 21 18 21 26 0 8 4 15 8 15 11 0 145 122 202 182 24 26 47 48 52 48
4 0 11 -15 16 -32z m-4675 -114 c20 -4 37 -11 37 -16 0 -16 67 -104 158 -208
77 -87 82 -96 65 -108 -54 -39 -142 -119 -142 -128 -2 -32 32 -15 103 49 l77
70 25 -25 25 -24 -58 -39 c-31 -21 -101 -83 -155 -137 l-98 -99 -48 21 c-55
24 -112 76 -192 176 -76 95 -101 148 -93 197 5 31 9 36 24 32 22 -7 22 -5 9
29 -12 34 37 135 83 170 45 35 98 57 122 51 11 -3 37 -8 58 -11z m4990 3 c53
-23 96 -66 127 -128 25 -48 28 -63 20 -84 -13 -35 -13 -37 9 -30 15 4 19 -1
24 -31 4 -22 1 -50 -8 -70 -32 -77 -192 -262 -255 -294 -65 -33 -68 -31 -178
78 -57 57 -126 117 -153 134 l-51 31 26 26 26 25 42 -40 c82 -77 120 -106 130
-96 15 15 0 35 -77 97 l-73 60 52 60 c64 74 186 234 186 244 0 7 69 25 108 30
7 0 27 -5 45 -12z m-5853 -57 c6 -11 31 -43 55 -70 25 -28 45 -55 45 -60 0
-14 -27 -38 -94 -85 -63 -44 -110 -104 -104 -132 3 -15 9 -13 34 16 41 47 83
91 126 128 20 18 41 40 46 49 9 15 14 13 48 -19 l39 -37 -35 -27 c-120 -94
-166 -157 -226 -312 -15 -40 -34 -75 -41 -78 -17 -6 -90 37 -125 74 -40 43
-78 122 -78 162 l0 36 19 -40 c22 -49 82 -115 104 -115 21 0 67 61 67 88 0 31
-11 27 -43 -13 -17 -21 -33 -32 -42 -29 -24 9 -54 67 -68 130 -14 57 -13 62
16 144 59 171 95 209 194 210 42 0 54 -4 63 -20z m6751 -3 c41 -28 70 -78 108
-187 28 -80 28 -85 14 -143 -15 -65 -44 -122 -68 -131 -9 -3 -25 8 -42 29 -33
41 -43 44 -43 11 0 -29 45 -86 67 -86 22 0 83 67 104 115 l19 40 0 -36 c0 -44
-39 -121 -88 -171 -39 -41 -96 -72 -116 -65 -7 3 -27 43 -45 88 -18 46 -44
105 -59 131 -23 44 -99 124 -165 175 l-27 21 36 36 c34 34 37 35 50 19 7 -10
14 -21 14 -24 0 -4 24 -25 54 -48 30 -23 64 -57 77 -75 12 -19 31 -39 41 -45
15 -9 18 -8 18 9 0 25 -69 102 -130 143 -64 44 -75 57 -64 72 5 7 32 43 59 79
l50 66 51 0 c37 0 61 -6 85 -23z m-7674 -145 c18 -37 53 -92 78 -122 25 -30
45 -57 45 -60 0 -3 -19 -25 -43 -49 -52 -55 -77 -91 -77 -113 0 -33 18 -19 80
61 l62 80 37 -27 38 -27 -34 -46 c-33 -46 -133 -245 -133 -265 0 -13 -134 -64
-166 -64 -25 0 -118 95 -163 165 -39 62 -45 95 -30 157 l12 51 17 -56 c31
-101 109 -207 152 -207 29 0 74 35 88 70 7 17 10 33 8 36 -3 2 -27 -13 -54
-34 -42 -33 -53 -37 -72 -29 -26 12 -64 80 -93 166 -11 30 -23 58 -29 61 -14
9 59 183 99 237 33 43 94 80 136 82 6 1 25 -29 42 -67z m8569 37 c19 -11 47
-40 63 -63 37 -54 103 -218 91 -226 -5 -3 -18 -31 -29 -61 -27 -81 -57 -134
-87 -158 -29 -23 -44 -19 -83 23 -23 25 -51 35 -51 18 0 -4 8 -19 17 -32 51
-74 95 -80 145 -17 41 49 64 92 88 161 l17 51 12 -40 c17 -61 14 -85 -19 -141
-34 -59 -150 -184 -171 -184 -8 0 -47 11 -88 24 l-74 23 -36 84 c-40 93 -89
183 -120 218 -21 24 -20 41 1 41 7 0 22 9 34 21 l22 20 38 -51 c65 -86 92
-115 99 -108 16 16 -8 60 -63 117 l-57 60 28 33 c41 47 95 133 114 180 15 37
18 39 46 34 16 -3 45 -15 63 -27z m-5952 -178 c-6 -7 66 -51 175 -106 64 -34
104 -62 131 -94 22 -25 40 -49 40 -52 0 -4 -32 -28 -70 -55 l-70 -48 -40 39
c-22 21 -42 36 -46 33 -19 -19 52 -108 86 -108 40 0 150 89 150 121 0 6 7 6
18 0 47 -27 47 -27 10 -73 -19 -23 -53 -70 -75 -103 -89 -137 -97 -143 -145
-102 -64 54 -194 227 -239 317 -26 52 -30 72 -27 112 6 56 15 70 30 44 16 -29
79 -96 90 -96 5 0 -9 34 -31 76 -49 91 -51 104 -12 101 16 -1 27 -4 25 -6z
m3266 -8 c0 -9 -18 -49 -40 -90 -22 -40 -36 -73 -31 -73 10 0 73 68 89 96 16
29 27 8 27 -54 0 -45 -7 -71 -33 -122 -54 -103 -239 -320 -274 -320 -11 0 -43
38 -89 108 -39 59 -82 119 -95 133 l-24 25 26 25 c24 22 26 23 36 6 40 -73
130 -130 171 -108 24 13 67 70 67 89 0 21 -16 13 -49 -24 -21 -23 -38 -33 -48
-29 -20 7 -132 88 -133 95 0 3 18 26 40 52 25 28 62 57 96 73 31 15 93 48 137
74 112 66 127 71 127 44z m-4557 -67 c12 -13 34 -44 49 -68 40 -66 132 -176
189 -229 l50 -45 -41 -29 c-54 -38 -178 -169 -224 -239 -42 -64 -61 -69 -126
-36 -85 43 -240 212 -240 261 0 13 14 62 32 108 l33 85 6 -51 c7 -58 25 -97
33 -73 2 8 7 60 9 114 l6 99 42 43 c43 44 109 83 142 84 10 0 28 -11 40 -24z
m5913 -9 c17 -12 48 -37 68 -55 l37 -32 6 -103 c7 -121 16 -148 32 -91 6 21
11 55 11 74 1 30 6 23 35 -53 19 -49 35 -100 35 -115 0 -66 -223 -282 -293
-282 -31 0 -46 13 -100 90 -46 66 -159 182 -209 214 l-28 18 26 20 c29 23 16
30 133 -74 35 -32 69 -58 76 -58 7 0 19 -18 28 -40 14 -37 47 -56 47 -27 0 22
-157 183 -203 207 l-44 24 62 73 c35 41 80 101 102 135 60 94 79 111 116 104
18 -4 46 -16 63 -29z m-3808 -102 c-3 -3 -9 2 -12 12 -6 14 -5 15 5 6 7 -7 10
-15 7 -18z m-2970 -48 c13 -30 42 -81 67 -114 l43 -61 -53 -57 c-61 -66 -110
-154 -95 -169 5 -5 11 -8 13 -5 2 2 23 33 47 68 24 35 58 81 78 102 l34 39 29
-17 29 -17 -43 -46 c-65 -68 -115 -148 -142 -229 -14 -40 -25 -78 -25 -85 0
-8 -31 -17 -81 -26 -76 -12 -82 -12 -100 6 -26 26 -60 127 -66 194 l-5 55 44
-85 c50 -98 75 -117 121 -94 27 15 65 80 52 92 -3 3 -19 -9 -35 -26 -16 -18
-36 -32 -44 -32 -26 0 -89 146 -94 217 -4 56 -1 70 36 145 45 93 125 198 151
198 11 0 25 -19 39 -53z m1887 1 c23 -74 67 -152 125 -228 28 -36 59 -77 70
-92 l20 -26 -29 -19 c-53 -34 -121 -96 -121 -110 0 -23 37 -6 110 48 l65 48
23 -21 c12 -12 22 -24 22 -28 0 -4 -21 -18 -47 -31 -57 -29 -133 -97 -193
-173 -41 -53 -48 -57 -78 -52 -48 7 -85 38 -155 129 -133 171 -217 350 -172
363 6 2 25 -27 43 -64 18 -37 46 -83 63 -102 16 -19 56 -65 87 -102 91 -107
169 -132 211 -68 l16 23 -45 -6 c-55 -7 -82 6 -140 70 -92 101 -126 147 -167
232 l-32 66 74 71 c77 74 159 124 206 124 23 0 29 -6 44 -52z m3868 27 c57
-26 197 -148 197 -171 0 -56 -131 -249 -226 -333 -45 -39 -50 -41 -91 -35 -36
5 -43 4 -43 -10 0 -22 63 -48 95 -40 31 8 190 176 240 253 19 30 40 70 46 88
6 19 16 32 22 30 41 -15 -35 -185 -150 -338 -83 -109 -123 -145 -170 -155 -27
-5 -35 -1 -64 32 -94 106 -127 138 -180 173 -32 22 -64 41 -71 44 -9 3 -5 13
12 31 l25 26 64 -50 c36 -28 68 -50 72 -50 4 0 14 -3 23 -6 10 -4 16 -1 16 9
0 16 -118 117 -137 117 -7 0 -13 2 -13 6 0 4 116 160 130 174 13 13 69 129 80
165 6 22 13 46 15 53 7 19 52 14 108 -13z m1862 -22 c25 -27 66 -89 91 -140
43 -86 46 -97 42 -155 -3 -47 -13 -82 -42 -140 -21 -43 -44 -78 -51 -78 -7 0
-27 14 -44 32 -17 17 -33 29 -36 26 -8 -7 13 -59 32 -80 21 -23 75 -23 95 0
18 20 55 91 73 141 l14 36 0 -32 c2 -88 -55 -243 -90 -243 -10 0 -49 5 -86 12
l-68 11 -27 84 c-31 93 -77 171 -143 242 l-44 47 29 17 28 17 42 -47 c22 -26
57 -73 76 -105 38 -63 69 -79 54 -30 -11 41 -50 99 -103 156 l-45 48 43 59
c23 32 53 83 66 114 12 30 29 55 36 55 7 0 33 -21 58 -47z m-4585 -166 c25 -8
69 -20 98 -27 28 -7 52 -16 52 -21 0 -4 -24 -33 -52 -64 l-53 -56 -46 58 c-25
32 -54 73 -65 91 -16 28 -17 34 -4 42 8 5 17 5 20 0 3 -5 26 -15 50 -23z
m1538 6 c-18 -43 -63 -105 -98 -138 l-32 -30 -49 54 c-52 58 -58 71 -35 71 20
0 177 48 196 60 26 15 30 11 18 -17z m-1139 -99 c25 -5 36 -17 56 -56 33 -66
76 -126 118 -166 33 -32 34 -36 25 -70 -14 -50 -51 -106 -92 -137 -33 -25 -36
-26 -65 -11 -16 9 -59 53 -94 98 -89 115 -100 134 -92 158 6 18 11 15 45 -29
40 -51 89 -91 111 -91 8 0 6 7 -6 20 -10 11 -15 20 -11 20 4 0 -7 12 -25 27
-39 33 -89 109 -89 136 0 24 57 107 74 107 8 0 28 -3 45 -6z m751 -38 c16 -25
30 -52 30 -61 0 -27 -27 -70 -85 -137 -30 -34 -51 -64 -45 -66 16 -6 69 37
110 89 35 45 39 47 45 28 11 -35 -117 -209 -188 -254 -28 -18 -28 -18 -65 12
-37 30 -84 106 -95 153 -5 20 0 29 23 45 26 18 107 131 139 197 14 28 28 35
73 37 21 1 33 -8 58 -43z m-340 10 c0 -13 -25 -43 -57 -70 -21 -18 -23 -18
-50 2 -15 11 -36 34 -46 50 l-17 30 85 0 c54 -1 85 -5 85 -12z"/>
<path d="M5160 9948 c0 -19 69 -125 106 -161 30 -31 84 -37 104 -12 11 13 7
15 -29 15 -39 0 -43 3 -102 78 -78 98 -79 99 -79 80z"/>
<path d="M5493 9938 c-17 -22 -43 -81 -38 -86 11 -11 37 11 51 44 16 38 7 67
-13 42z"/>
<path d="M4955 9522 c-33 -42 -73 -83 -88 -92 -27 -14 -31 -13 -108 28 -76 41
-80 42 -77 20 2 -16 21 -32 63 -55 67 -36 93 -40 133 -19 47 25 162 156 162
185 0 27 -30 4 -85 -67z"/>
<path d="M5640 9587 c0 -48 157 -197 208 -197 55 0 172 83 149 106 -2 2 -34
-14 -70 -36 -37 -22 -74 -40 -84 -40 -24 0 -78 39 -96 70 -23 37 -87 110 -98
110 -5 0 -9 -6 -9 -13z"/>
<path d="M6800 9309 c-30 -27 -70 -54 -89 -60 -42 -14 -23 -30 23 -19 53 12
92 44 129 107 19 31 -14 17 -63 -28z"/>
<path d="M5105 9038 c-11 -29 101 -147 141 -148 5 0 20 -9 34 -20 16 -12 41
-20 68 -20 60 0 176 67 199 116 24 48 7 55 -30 12 -32 -37 -139 -98 -171 -98
-39 0 -124 54 -178 113 -46 50 -58 59 -63 45z"/>
<path d="M4647 9022 c-3 -15 -22 -52 -42 -81 -39 -56 -40 -67 -5 -56 30 10 73
79 74 122 1 43 -19 55 -27 15z"/>
<path d="M4310 8959 c0 -6 13 -30 30 -54 38 -55 89 -87 132 -83 40 4 36 19
-11 35 -19 6 -57 34 -85 62 -52 51 -66 60 -66 40z"/>
<path d="M6007 9043 c-22 -22 29 -137 68 -155 41 -18 40 -3 -4 63 -22 34 -41
70 -41 80 0 19 -11 25 -23 12z"/>
<path d="M6297 8914 c-33 -30 -72 -57 -88 -61 -39 -8 -46 -21 -14 -29 43 -11
96 17 137 71 36 47 47 75 31 75 -5 -1 -34 -26 -66 -56z"/>
<path d="M4034 8477 c-18 -12 -47 -31 -65 -41 -28 -16 -30 -20 -16 -24 34 -7
62 7 90 48 16 22 27 40 25 39 -2 0 -17 -10 -34 -22z"/>
<path d="M6630 8472 c0 -14 54 -60 74 -64 40 -7 25 22 -23 47 -28 14 -51 22
-51 17z"/>
<path d="M5166 8001 c-7 -11 106 -53 160 -59 39 -4 165 29 188 49 20 18 -5 20
-50 5 -60 -20 -175 -21 -240 -1 -58 18 -52 17 -58 6z"/>
<path d="M4754 7329 c-3 -5 1 -11 8 -14 44 -16 205 -47 285 -55 51 -6 128 -19
170 -30 97 -25 163 -25 255 0 40 11 114 24 163 30 156 17 313 57 294 74 -2 2
-74 -7 -159 -20 -272 -41 -420 -57 -473 -51 -166 20 -383 48 -455 60 -45 8
-85 10 -88 6z"/>
<path d="M8460 7243 c1 -4 30 -39 66 -78 36 -38 85 -100 110 -137 51 -76 76
-90 43 -25 -44 88 -220 281 -219 240z"/>
<path d="M5284 6518 c-210 -339 -348 -723 -406 -1123 -21 -148 -16 -484 11
-639 62 -371 202 -742 398 -1058 l56 -90 47 73 c244 383 401 859 434 1310 l6
77 -38 7 c-144 26 -194 214 -82 308 18 16 46 31 61 34 35 7 35 9 8 150 -41
215 -119 449 -225 671 -71 150 -194 362 -209 362 -6 0 -33 -37 -61 -82z"/>
<path d="M6820 5969 c0 -8 16 -91 35 -185 20 -93 40 -200 46 -239 6 -38 18
-95 26 -125 12 -39 17 -101 18 -210 2 -227 3 -239 17 -216 7 14 9 93 5 265 -7
273 -13 312 -87 556 -44 144 -59 184 -60 154z"/>
<path d="M3851 5953 c-24 -47 -101 -319 -121 -433 -13 -73 -25 -433 -16 -493
15 -101 26 -42 26 141 0 152 4 200 19 257 10 39 22 95 25 125 4 30 15 93 26
140 10 47 24 110 30 140 16 73 28 140 24 140 -2 0 -7 -8 -13 -17z"/>
<path d="M4157 5723 c-18 -34 -24 -108 -8 -99 12 7 34 101 29 118 -3 8 -12 -1
-21 -19z"/>
<path d="M6510 5723 c0 -47 20 -107 32 -95 7 7 7 26 -2 61 -14 58 -30 76 -30
34z"/>
<path d="M4116 5484 c-9 -24 -7 -54 4 -54 6 0 10 16 10 35 0 38 -4 44 -14 19z"/>
<path d="M6550 5471 c0 -29 14 -49 23 -34 8 12 -4 63 -14 63 -5 0 -9 -13 -9
-29z"/>
<path d="M4108 5360 c-15 -56 -18 -142 -8 -260 6 -69 15 -188 20 -265 5 -77
14 -167 19 -200 18 -104 111 -339 127 -322 3 2 -8 38 -24 78 -51 129 -86 344
-103 639 -16 287 -23 360 -31 330z"/>
<path d="M6567 5373 c-4 -6 -5 -17 -2 -25 3 -7 -1 -67 -9 -133 -7 -66 -14
-178 -15 -250 -1 -84 -10 -179 -26 -270 -34 -200 -44 -241 -76 -320 -35 -84
-35 -85 -7 -50 31 40 97 227 114 325 27 152 51 614 37 690 -5 25 -12 40 -16
33z"/>
<path d="M6808 4327 c-20 -40 -62 -126 -93 -192 -31 -66 -71 -138 -89 -160
-18 -22 -40 -54 -49 -71 -22 -43 -57 -137 -53 -141 7 -7 46 54 70 109 13 29
36 64 51 78 48 44 222 426 203 445 -2 2 -20 -28 -40 -68z"/>
<path d="M3840 4376 c0 -53 143 -363 190 -411 16 -17 45 -62 64 -100 36 -72
63 -112 70 -104 9 9 -75 184 -103 213 -16 17 -57 90 -91 161 -87 185 -122 255
-126 255 -2 0 -4 -6 -4 -14z"/>
<path d="M9743 4913 c-22 -8 -14 -80 22 -192 32 -97 55 -135 72 -117 3 3 -12
56 -33 118 -20 62 -38 132 -38 155 -1 24 -3 43 -6 42 -3 0 -11 -3 -17 -6z"/>
<path d="M913 4873 c-1 -27 -18 -95 -37 -152 -34 -98 -36 -134 -7 -117 16 10
81 224 81 267 0 31 -12 49 -34 49 -1 0 -3 -21 -3 -47z"/>
<path d="M395 3999 c-4 -6 -5 -13 -2 -16 7 -7 27 6 27 18 0 12 -17 12 -25 -2z"/>
<path d="M10260 4002 c0 -5 7 -13 16 -16 10 -4 14 -1 12 6 -5 15 -28 23 -28
10z"/>
<path d="M1047 3910 c-15 -45 -129 -284 -149 -312 -24 -35 -54 -36 -98 -3 -66
49 -84 20 -20 -32 41 -35 91 -43 120 -20 32 25 68 85 114 189 39 88 47 115 44
155 -3 41 -4 44 -11 23z"/>
<path d="M9624 3875 c3 -47 16 -85 59 -175 30 -63 67 -127 81 -142 37 -39 86
-38 137 3 65 51 45 83 -21 34 -70 -51 -91 -32 -182 170 -30 66 -60 131 -67
145 -10 21 -11 17 -7 -35z"/>
<path d="M10471 2638 c29 -49 87 -113 94 -106 9 9 -60 115 -84 127 -30 17 -32
14 -10 -21z"/>
<path d="M188 2646 c-33 -29 -82 -106 -73 -114 8 -8 72 62 98 107 22 37 12 39
-25 7z"/>
<path d="M5190 2591 c0 -15 47 -20 160 -17 142 4 150 5 150 16 0 6 -58 10
-155 10 -88 0 -155 -4 -155 -9z"/>
<path d="M9990 2256 c0 -22 101 -166 116 -166 29 0 12 38 -47 108 -34 40 -63
72 -65 72 -2 0 -4 -6 -4 -14z"/>
<path d="M640 2219 c-63 -72 -88 -115 -74 -129 8 -8 22 5 52 45 82 109 98 173
22 84z"/>
<path d="M2187 2082 c-40 -42 -33 -62 8 -22 19 19 35 38 35 42 0 15 -16 8 -43
-20z"/>
<path d="M8450 2102 c0 -4 16 -23 35 -42 27 -26 35 -30 35 -16 0 9 -12 28 -26
41 -27 25 -44 32 -44 17z"/>
<path d="M1095 1712 c-26 -40 -47 -116 -26 -97 11 11 63 135 55 135 -2 0 -15
-17 -29 -38z"/>
<path d="M9556 1740 c10 -37 52 -130 58 -130 17 0 1 53 -30 100 -20 32 -32 44
-28 30z"/>
<path d="M704 1294 c-38 -38 -114 -190 -114 -229 0 -38 33 -7 56 52 23 64 66
145 92 175 8 9 12 22 10 29 -3 8 -20 -3 -44 -27z"/>
<path d="M9930 1325 c0 -3 20 -40 43 -83 24 -42 52 -99 62 -127 10 -27 24 -56
31 -64 11 -13 14 -12 20 3 14 37 -76 221 -126 256 -17 12 -30 19 -30 15z"/>
<path d="M2680 1038 c0 -14 60 -108 69 -108 3 0 26 -25 51 -55 55 -68 116
-101 153 -84 25 11 51 52 40 63 -3 3 -21 -4 -40 -15 -32 -20 -34 -20 -61 -3
-63 41 -145 123 -174 177 -21 37 -38 48 -38 25z"/>
<path d="M7984 1042 c-5 -4 -21 -25 -34 -47 -26 -42 -49 -66 -120 -125 -63
-53 -67 -54 -104 -30 -42 26 -55 11 -23 -26 17 -20 34 -28 60 -28 20 -1 35 -1
33 1 -1 1 34 40 77 85 84 88 131 150 125 167 -1 6 -8 7 -14 3z"/>
<path d="M2622 613 c-34 -16 -202 -189 -202 -207 0 -6 -12 -20 -27 -30 -40
-30 -72 -13 -108 58 -36 70 -62 87 -51 35 25 -129 124 -191 173 -109 9 17 23
30 31 30 7 0 21 18 30 40 9 22 22 40 27 40 6 0 33 21 60 46 28 25 67 58 87 74
21 15 34 30 31 34 -9 9 -14 8 -51 -11z"/>
<path d="M8424 488 c-5 -7 -20 -35 -34 -63 -30 -60 -68 -79 -99 -51 -30 27
-36 0 -7 -29 29 -29 35 -30 80 -11 34 14 66 67 81 134 7 32 -6 44 -21 20z"/>
<path d="M5170 270 c0 -6 -23 -26 -50 -46 -50 -36 -58 -61 -17 -48 49 14 115
104 77 104 -5 0 -10 -5 -10 -10z"/>
<path d="M5490 263 c0 -10 4 -24 8 -31 12 -18 74 -62 89 -62 27 0 12 28 -32
59 -25 18 -45 36 -45 42 0 5 -4 9 -10 9 -5 0 -10 -8 -10 -17z"/>
<path d="M1 791 c-2 -85 110 -251 168 -251 25 0 43 32 39 68 l-4 27 -14 -27
c-7 -16 -19 -28 -26 -28 -23 0 -77 74 -120 164 l-43 91 0 -44z"/>
<path d="M10629 730 c-25 -52 -61 -108 -78 -125 l-33 -30 -23 29 c-27 34 -37
24 -21 -24 7 -23 18 -36 31 -38 56 -8 180 167 173 246 -3 36 -4 35 -49 -58z"/>
<path d="M757 368 c-36 -45 -54 -80 -84 -162 -25 -68 -44 -78 -83 -41 -33 32
-49 28 -32 -9 18 -40 57 -60 95 -49 29 8 35 17 59 83 14 41 42 106 62 143 20
38 36 70 36 73 0 15 -24 -2 -53 -38z"/>
<path d="M9870 405 c0 -3 22 -49 49 -103 27 -53 55 -116 60 -139 9 -33 18 -43
42 -52 39 -14 77 2 98 41 22 39 6 46 -29 13 -46 -44 -55 -36 -104 98 -18 49
-89 147 -106 147 -6 0 -10 -2 -10 -5z"/>
<path d="M2145 112 c-40 -37 -85 -91 -85 -103 0 -19 49 -9 55 11 4 11 22 41
41 65 19 25 34 47 34 50 0 11 -17 3 -45 -23z"/>
<path d="M8504 118 c9 -13 29 -44 44 -70 19 -35 33 -48 50 -48 12 0 22 2 22 5
0 16 -53 85 -83 108 -43 33 -55 34 -33 5z"/>
<path d="M229 79 c-6 -12 -15 -35 -19 -50 -7 -25 -6 -29 10 -29 23 0 26 5 35
58 7 46 -6 57 -26 21z"/>
<path d="M10424 58 c8 -52 12 -58 37 -58 16 0 19 4 13 23 -24 78 -61 105 -50
35z"/>
<path d="M6980 25 c-7 -9 -10 -18 -7 -22 8 -7 37 15 37 28 0 14 -16 11 -30 -6z"/>
</g>
</svg>
